<?xml version="1.0" encoding="utf-8"?>
<!-- Generator: Adobe Illustrator 17.1.0, SVG Export Plug-In . SVG Version: 6.00 Build 0)  -->
<!DOCTYPE svg PUBLIC "-//W3C//DTD SVG 1.1//EN" "http://www.w3.org/Graphics/SVG/1.1/DTD/svg11.dtd">
<svg version="1.1" id="Layer_1" xmlns="http://www.w3.org/2000/svg" xmlns:xlink="http://www.w3.org/1999/xlink" x="0px" y="0px"
	 viewBox="0 0 182 62" enable-background="new 0 0 182 62" xml:space="preserve">
<g>
	<g>
		<polygon fill="#333366" points="32.6,15.4 48.1,15.4 52.8,0 37.3,0 		"/>
		<polygon fill="#009191" points="28,30.8 43.5,30.8 48.1,15.4 32.6,15.4 		"/>
		<polygon fill="#C40000" points="23.3,46.2 38.8,46.2 43.5,30.8 28,30.8 		"/>
		<polygon fill="#FF6600" points="18.6,61.6 34.1,61.6 38.8,46.2 23.3,46.2 		"/>
		<polygon fill="#333366" points="15.5,0 0,0 14.6,48.2 22.4,22.7 		"/>
	</g>
	<g>
		<path fill="#333366" d="M70.4,46.2v7.9c0,2.7,1.2,4.3,3.9,4.3c2.6,0,3.8-1.6,3.8-4.3v-7.9h4.2v7.9c0,5.1-3.1,7.9-8,7.9
			c-4.9,0-8-2.8-8-7.9v-7.9H70.4z"/>
		<path fill="#333366" d="M88.8,46.2v5.4h3.6l3.7-5.4h4.8l-5,7.1l5.3,8.3h-4.9l-3.8-6.2h-3.8v6.2h-4.1V46.2H88.8z"/>
		<path fill="#333366" d="M112.4,46.2c3.7,0,6.5,2.5,6.5,6.1c0,2.3-1.1,4-2.8,5.1l2.4,4.2h-4.5l-1.8-3.3h-4.8v3.3h-4.1V46.2H112.4z
			 M107.3,54.6h4.9c1.5,0,2.5-0.8,2.5-2.3c0-1.5-1-2.4-2.5-2.4h-4.9V54.6z"/>
		<path fill="#333366" d="M133.2,46.2l6.6,15.4h-4.4l-1-2.3h-8.6l-1,2.3h-4.4l6.7-15.4H133.2z M127.3,55.8h5.5l-2.4-5.9h-0.6
			L127.3,55.8z"/>
		<path fill="#333366" d="M145.9,46.2v15.4h-4.1V46.2H145.9z"/>
		<path fill="#333366" d="M152.3,46.2l8.3,9.3v-9.3h4.1v15.4h-3.8l-8.3-9.3v9.3h-4.1V46.2H152.3z"/>
		<path fill="#333366" d="M181.6,46.2v3.7h-10.2v2h9.1v3.7h-9.1v2.2H182v3.8h-14.6V46.2H181.6z"/>
	</g>
	<g>
		<path fill="#333366" d="M69.1,23.3l4.8,11.9h0.4l4.8-11.9h4.6l-6.8,15.6h-5.5l-6.9-15.6H69.1z"/>
		<path fill="#333366" d="M101.1,23.3V27H90.8v2.1h9.2v3.7h-9.2V35h10.6v3.8H86.6V23.3H101.1z"/>
		<path fill="#333366" d="M118.2,28.4c-1.8-1.3-3.7-1.8-6.2-1.8c-2.7,0-3.3,0.6-3.3,1.3c0,0.6,0.7,0.8,1.6,0.9l4.6,0.5
			c3.5,0.4,5.6,1.8,5.6,4.8c0,3.6-3.6,5.2-8.3,5.2c-3.3,0-5.7-0.7-8.3-2.6l2-3.2c2.1,1.5,4.3,2.3,6.7,2.3c2.2,0,3.9-0.5,3.9-1.5
			c0-0.5-0.1-0.8-1.1-0.9l-5.4-0.6c-3.3-0.4-5.3-1.7-5.3-4.7c0-3.4,3.3-5,7.4-5c3,0,5.7,0.6,8.2,2.5L118.2,28.4z"/>
		<path fill="#333366" d="M138.9,23.3V27h-6.1v11.9h-4.2V27h-6.1v-3.7H138.9z"/>
		<path fill="#333366" d="M145.9,23.3v15.6h-4.2V23.3H145.9z"/>
	</g>
	<g>
		<path fill="#333366" d="M67.4,7.9l2.8,6.2h0.1l2.7-6.2h1.5v7.4h-0.9V9h-0.2l-2.7,6.2h-0.9L67,9h-0.2v6.2h-0.9V7.9H67.4z"/>
		<path fill="#333366" d="M84,7.9v0.9h-4.8V11h4.3v0.9h-4.3v2.3h4.9v1h-5.8V7.9H84z"/>
		<path fill="#333366" d="M91.3,7.9c1.9,0,3.4,1.4,3.4,3.7c0,2.3-1.6,3.7-3.4,3.7h-3.2V7.9H91.3z M89,14.3h2.2
			c1.6,0,2.6-1.1,2.6-2.7c0-1.6-1-2.7-2.6-2.7H89V14.3z"/>
		<path fill="#333366" d="M99.4,7.9v7.4h-0.9V7.9H99.4z"/>
		<path fill="#333366" d="M108.1,7.9l2.7,7.4h-1l-0.5-1.2h-4.8l-0.5,1.2h-1l2.8-7.4H108.1z M104.9,13.1h4.1l-1.5-4.3h-1L104.9,13.1z
			"/>
		<path fill="#333366" d="M119.9,7.9v3.1h4.6V7.9h0.9v7.4h-0.9v-3.3h-4.6v3.3H119V7.9H119.9z"/>
		<path fill="#333366" d="M132.8,15.4c-2,0-3.6-1.5-3.6-3.9c0-2.3,1.6-3.9,3.6-3.9c2,0,3.6,1.5,3.6,3.9
			C136.3,13.9,134.8,15.4,132.8,15.4z M132.8,14.5c1.5,0,2.7-1.1,2.7-2.9c0-1.8-1.2-2.9-2.7-2.9c-1.5,0-2.7,1.1-2.7,2.9
			C130.1,13.4,131.3,14.5,132.8,14.5z"/>
		<path fill="#333366" d="M141,7.9v6.4h4.8v1h-5.7V7.9H141z"/>
		<path fill="#333366" d="M152.7,7.9c1.9,0,3.4,1.4,3.4,3.7c0,2.3-1.6,3.7-3.4,3.7h-3.2V7.9H152.7z M150.4,14.3h2.2
			c1.6,0,2.6-1.1,2.6-2.7c0-1.6-1-2.7-2.6-2.7h-2.2V14.3z"/>
		<path fill="#333366" d="M160.8,7.9v7.4h-0.9V7.9H160.8z"/>
		<path fill="#333366" d="M165.8,7.9l4.7,6v-6h0.9v7.4h-1l-4.7-6v6h-0.9V7.9H165.8z"/>
		<path fill="#333366" d="M182,11.1v4.1h-0.6l-0.2-0.8c-0.6,0.6-1.4,1-2.5,1c-2.1,0-3.6-1.5-3.6-3.9c0-2.4,1.5-3.8,3.6-3.8
			c1.4,0,2.4,0.6,3.1,1.7l-0.7,0.5c-0.5-0.8-1.3-1.2-2.4-1.2c-1.6,0-2.6,1.1-2.6,2.9c0,1.7,1.1,2.9,2.6,2.9c1.1,0,1.8-0.4,2.4-1.1
			v-1.3l-1.8-0.1v-0.9H182z"/>
	</g>
</g>
</svg>
