<?xml version="1.0" encoding="utf-8"?>
<!-- Generator: Adobe Illustrator 16.0.2, SVG Export Plug-In . SVG Version: 6.00 Build 0)  -->
<!DOCTYPE svg PUBLIC "-//W3C//DTD SVG 1.1//EN" "http://www.w3.org/Graphics/SVG/1.1/DTD/svg11.dtd">
<svg version="1.1" id="Layer_1" xmlns="http://www.w3.org/2000/svg" xmlns:xlink="http://www.w3.org/1999/xlink" x="0px" y="0px"
	 width="960px" height="654.572px" viewBox="0 0 960 654.572" style="enable-background:new 0 0 960 654.572;" xml:space="preserve"
	>
<style type="text/css">
<![CDATA[
	.st0{fill:#1C2473;}
	.st1{fill:#F58220;}
	.st2{fill:#00A99D;}
	.st3{fill:#D2232A;}
]]>
</style>
<path class="st0" d="M527.035,630.033h8.478c2.535,0,4.336-1.318,4.336-3.945c0-2.586-1.801-4.195-4.336-4.195h-8.478V630.033z
	 M535.805,615.367c6.479,0,11.259,4.332,11.259,10.721c0,3.997-1.854,7.063-4.876,8.862l4.093,7.357h-7.796l-3.068-5.749h-8.381
	v5.749h-7.166v-26.94H535.805z"/>
<path class="st0" d="M392.026,624.281c-3.121-2.291-6.385-3.165-10.573-3.165c-4.581,0-5.604,1.023-5.604,2.193
	c0,1.119,1.169,1.313,2.778,1.507l7.845,0.88c5.945,0.73,9.598,3.116,9.598,8.335c0,6.188-6.141,8.958-14.23,8.958
	c-5.603,0-9.791-1.211-14.226-4.574l3.361-5.561c3.654,2.586,7.359,3.899,11.5,3.899c3.704,0,6.627-0.822,6.627-2.626
	c0-0.924-0.243-1.416-1.95-1.559l-9.259-1.078c-5.701-0.674-9.112-2.918-9.112-8.136c0-5.892,5.701-8.623,12.67-8.623
	c5.166,0,9.745,0.971,14.033,4.289L392.026,624.281z"/>
<path class="st0" d="M462.79,615.367v13.787c0,4.779,2.095,7.554,6.725,7.554c4.58,0,6.675-2.774,6.675-7.554v-13.787h7.211v13.736
	c0,8.924-5.407,13.89-13.886,13.89c-8.478,0-13.884-4.966-13.884-13.89v-13.736H462.79z"/>
<polygon class="st0" points="363.681,615.367 363.681,621.847 346.041,621.847 346.041,625.404 361.875,625.404 361.875,631.883 
	346.041,631.883 346.041,635.681 364.313,635.681 364.313,642.308 338.877,642.308 338.877,615.367 "/>
<polygon class="st0" points="327.295,615.363 319.107,635.926 318.427,635.926 310.144,615.363 302.105,615.363 313.946,642.315 
	323.446,642.315 335.141,615.363 "/>
<polygon class="st0" points="427.096,615.367 427.096,621.796 416.62,621.796 416.62,642.308 409.407,642.308 409.407,621.796 
	398.932,621.796 398.932,615.367 "/>
<rect x="430.835" y="615.367" class="st0" width="7.165" height="26.94"/>
<polygon class="st0" points="494.789,615.367 494.789,624.868 501.121,624.868 507.605,615.367 515.891,615.367 507.213,627.842 
	516.47,642.308 507.949,642.308 501.317,631.444 494.789,631.444 494.789,642.308 487.675,642.308 487.675,615.367 "/>
<path class="st0" d="M561.761,632.124h9.504l-4.095-10.374h-1.119L561.761,632.124z M571.897,615.367l11.45,26.94h-7.603
	l-1.706-3.944h-14.907l-1.655,3.944h-7.703l11.698-26.94H571.897z"/>
<rect x="586.936" y="615.367" class="st0" width="7.165" height="26.94"/>
<polygon class="st0" points="656.112,615.367 656.112,621.847 638.473,621.847 638.473,625.404 654.309,625.404 654.309,631.883 
	638.473,631.883 638.473,635.681 656.748,635.681 656.748,642.308 631.313,642.308 631.313,615.367 "/>
<polygon class="st0" points="605.206,615.367 619.629,631.638 619.629,615.367 626.747,615.367 626.747,642.308 620.169,642.308 
	605.741,626.037 605.741,642.308 598.677,642.308 598.677,615.367 "/>
<path class="st0" d="M656.748,594.414v7.496h-1.273l-0.322-1.456c-1.344,1.142-2.885,1.799-5.313,1.799
	c-4.332,0-7.49-2.702-7.49-7.086c0-4.354,3.255-7.033,7.49-7.033c3.037,0,5.069,1.051,6.566,3.071l-1.547,0.896
	c-1.151-1.455-2.74-2.214-5.068-2.214c-3.353,0-5.507,2.096-5.507,5.28c0,3.141,2.301,5.334,5.507,5.334
	c2.373,0,3.894-0.658,5.118-1.97v-2.387l-3.722-0.15v-1.58H656.748z M614.025,588.454l9.843,10.955v-10.955h1.886v13.456h-2.131
	l-9.819-10.979v10.979h-1.883v-13.456H614.025z M594.917,601.91h-1.913v-13.456h1.913V601.91z M564.391,600.158h4.652
	c3.303,0,5.462-1.971,5.462-4.991c0-3.015-2.159-4.983-5.462-4.983h-4.652V600.158z M569.167,588.454
	c3.916,0,7.247,2.504,7.247,6.713c0,4.215-3.432,6.743-7.247,6.743h-6.687v-13.456H569.167z M536.021,588.454v11.704h10.134v1.752
	h-12.048v-13.456H536.021z M509.973,600.552c3.138,0,5.61-1.976,5.61-5.36c0-3.38-2.473-5.35-5.61-5.35
	c-3.157,0-5.605,1.97-5.629,5.35C504.367,598.576,506.815,600.552,509.973,600.552 M509.973,602.253
	c-4.26,0-7.541-2.798-7.541-7.062c0-4.26,3.281-7.058,7.541-7.058c4.263,0,7.542,2.798,7.542,7.058
	C517.515,599.455,514.235,602.253,509.973,602.253 M474.182,588.454v5.594h9.723v-5.594h1.933v13.456h-1.933v-6.108h-9.723v6.108
	h-1.91v-13.456H474.182z M421.435,597.97h8.571l-3.233-7.786h-2.008L421.435,597.97z M428.02,588.454l5.757,13.456h-2.011
	l-0.954-2.187h-10.114l-0.952,2.187h-2.059l5.902-13.456H428.02z M401.175,601.91h-1.912v-13.456h1.912V601.91z M370.647,600.158
	h4.655c3.306,0,5.457-1.971,5.457-4.991c0-3.015-2.15-4.983-5.457-4.983h-4.655V600.158z M375.425,588.454
	c3.917,0,7.248,2.504,7.248,6.713c0,4.215-3.431,6.743-7.248,6.743h-6.688v-13.456H375.425z M351.58,588.454v1.729h-10.038v3.969
	h9.012v1.729h-9.012v4.277h10.407v1.752h-12.318v-13.456H351.58z M307.881,588.454l5.802,11.366h0.122l5.684-11.366h3.133v13.456
	h-1.936v-11.338h-0.368l-5.68,11.338h-1.884l-5.804-11.338h-0.369v11.338h-1.885v-13.456H307.881z"/>
<polygon class="st0" points="534.078,144.981 670.346,144.981 711.354,8.713 575.078,8.713 "/>
<polygon class="st2" points="493.078,281.254 629.347,281.254 670.346,144.986 534.09,144.986 "/>
<polygon class="st3" points="452.066,417.534 588.347,417.534 629.347,281.262 493.078,281.262 "/>
<polygon class="st1" points="411.065,553.79 547.334,553.79 588.347,417.534 452.066,417.534 "/>
<polygon class="st0" points="383.918,8.713 247.5,8.713 375.885,435.498 444.127,209.269 "/>
</svg>
