<?xml version="1.0" encoding="utf-8"?>
<!-- Generator: Adobe Illustrator 16.0.2, SVG Export Plug-In . SVG Version: 6.00 Build 0)  -->
<!DOCTYPE svg PUBLIC "-//W3C//DTD SVG 1.1//EN" "http://www.w3.org/Graphics/SVG/1.1/DTD/svg11.dtd">
<svg version="1.1" id="Layer_1" xmlns="http://www.w3.org/2000/svg" xmlns:xlink="http://www.w3.org/1999/xlink" x="0px" y="0px"
	 width="960px" height="560px" viewBox="0 0 960 560" style="enable-background:new 0 0 960 560;" xml:space="preserve">
<style type="text/css">
<![CDATA[
	.st0{clip-path:url(#SVGID_2_);fill:#70757B;}
	.st1{clip-path:url(#SVGID_18_);fill:#FFFFFF;}
	.st2{clip-path:url(#SVGID_7_);fill:url(#SVGID_8_);}
	.st3{clip-path:url(#SVGID_15_);fill:url(#SVGID_16_);}
	
		.st4{clip-path:url(#SVGID_18_);fill:none;stroke:#5A2067;stroke-width:0.11;stroke-linecap:round;stroke-linejoin:round;stroke-miterlimit:10;}
	.st5{clip-path:url(#SVGID_13_);fill:#FFFFFF;}
	.st6{clip-path:url(#SVGID_20_);fill:#5A2067;}
	.st7{fill:#575656;}
	.st8{clip-path:url(#SVGID_2_);fill:none;stroke:#3E4144;stroke-width:0.366;stroke-miterlimit:10;}
	.st9{fill:#5A2067;}
	.st10{clip-path:url(#SVGID_13_);fill:#D41638;}
	.st11{clip-path:url(#SVGID_2_);fill:#F5AB76;}
	.st12{fill:none;stroke:#5A2067;stroke-width:0.11;stroke-linecap:round;stroke-linejoin:round;stroke-miterlimit:10;}
	.st13{clip-path:url(#SVGID_4_);fill:url(#SVGID_5_);}
	.st14{clip-path:url(#SVGID_10_);fill:url(#SVGID_11_);}
	.st15{clip-path:url(#SVGID_18_);fill:#5A2067;}
	
		.st16{clip-path:url(#SVGID_20_);fill:none;stroke:#5A2067;stroke-width:0.11;stroke-linecap:round;stroke-linejoin:round;stroke-miterlimit:10;}
]]>
</style>
<g>
	<g>
		<path class="st7" d="M295.697,352.869v-10.102h2.178v10.102c0,3.591-2.288,5.467-5.813,5.467c-3.529,0-5.834-1.876-5.834-5.467
			v-10.102h2.178v10.102c0,1.938,0.958,3.505,3.656,3.505C294.759,356.374,295.697,354.807,295.697,352.869z"/>
		<path class="st7" d="M310.022,358.006l-4.375-6.899h-1.677v6.899h-2.178v-15.238h2.178v6.38h1.546l4.505-6.38h2.614l-5.161,7.271
			l5.291,7.968H310.022z"/>
		<path class="st7" d="M317.316,358.006h-2.175v-15.238h4.288c2.546,0,5.072,1.436,5.072,4.638c0,2.22-1.217,3.591-2.807,4.224
			l3.68,6.377h-2.504l-3.46-5.965h-2.092V358.006z M317.316,350.082h1.718c2.092,0,3.158-0.935,3.158-2.677
			c0-1.741-1.065-2.68-3.158-2.68h-1.718V350.082z"/>
		<path class="st7" d="M334.449,342.768l5.25,15.238h-2.288l-1.413-4.092h-5.924l-1.413,4.092h-2.092l5.247-15.238H334.449z
			 M330.751,351.955h4.57l-2.265-6.642L330.751,351.955z"/>
		<path class="st7" d="M341.98,358.006v-15.238h2.179v15.238H341.98z"/>
		<path class="st7" d="M360.487,358.006h-1.522l-8.924-11.102v11.102h-1.962v-15.238h1.522l8.927,11.125v-11.125h1.959V358.006z"/>
		<path class="st7" d="M364.41,358.006v-15.238h2.176v15.238H364.41z"/>
		<path class="st7" d="M376.447,342.768l5.247,15.238h-2.285l-1.416-4.092h-5.92l-1.416,4.092h-2.089l5.244-15.238H376.447z
			 M372.747,351.955h4.573l-2.264-6.642L372.747,351.955z"/>
		<path class="st7" d="M396.084,358.006h-1.522l-8.927-11.102v11.102h-1.958v-15.238h1.525l8.924,11.125v-11.125h1.958V358.006z"/>
		<path class="st7" d="M409.932,358.006h-4.57v-15.238h4.57c1.896,0,4.202,0.938,4.202,3.68c0,1.697-0.893,3.048-2.611,3.591
			c1.807,0.392,3.089,1.591,3.089,3.68C414.612,356.766,412.044,358.006,409.932,358.006z M409.347,344.726h-1.811v4.422h1.811
			c1.718,0,2.587-0.655,2.587-2.223S411.065,344.726,409.347,344.726z M409.519,351.106h-1.982v4.941h1.982
			c1.763,0,2.917-0.719,2.917-2.461C412.437,351.849,411.282,351.106,409.519,351.106z"/>
		<path class="st7" d="M419.621,358.006h-2.178v-15.238h4.292c2.546,0,5.071,1.436,5.071,4.638c0,2.22-1.22,3.591-2.81,4.224
			l3.68,6.377h-2.504l-3.46-5.965h-2.089V358.006z M419.621,350.082h1.721c2.089,0,3.155-0.935,3.155-2.677
			c0-1.741-1.065-2.68-3.155-2.68h-1.721V350.082z"/>
		<path class="st7" d="M429.417,350.388c0-4.291,2.656-7.947,7.339-7.947c4.677,0,7.333,3.656,7.333,7.947
			c0,4.289-2.656,7.948-7.333,7.948C432.073,358.336,429.417,354.677,429.417,350.388z M441.914,350.388
			c0-3.766-2.199-5.988-5.158-5.988c-2.961,0-5.161,2.223-5.161,5.988c0,3.767,2.199,5.986,5.161,5.986
			C439.715,356.374,441.914,354.154,441.914,350.388z"/>
		<path class="st7" d="M453.04,342.768l5.247,15.238h-2.288l-1.413-4.092h-5.923l-1.416,4.092h-2.089l5.247-15.238H453.04z
			 M449.339,351.955h4.57l-2.261-6.642L449.339,351.955z"/>
		<path class="st7" d="M465.21,342.768c5.203,0,7.031,3.982,7.031,7.62c0,3.636-1.828,7.618-7.031,7.618h-4.638v-15.238H465.21z
			 M469.846,350.388c0-3.594-1.347-5.662-4.962-5.662h-2.134v11.322h2.134C468.499,356.048,469.846,353.979,469.846,350.388z"/>
		<path class="st7" d="M486.479,343.379l-0.763,1.893c-1.371-0.521-2.48-0.872-4.092-0.872c-3.024,0-5.244,2.265-5.244,5.988
			c0,3.941,2.22,5.986,5.244,5.986c1.635,0,3.178-0.87,4.508-1.763l0.935,1.677c0,0-2.567,2.048-5.442,2.048
			c-5.072,0-7.642-3.227-7.642-7.948c0-4.508,2.57-7.947,7.642-7.947C483.497,342.44,485.174,342.791,486.479,343.379z"/>
		<path class="st7" d="M495.623,342.768l5.247,15.238h-2.285l-1.415-4.092h-5.921l-1.416,4.092h-2.089l5.247-15.238H495.623z
			 M491.926,351.955h4.57l-2.265-6.642L491.926,351.955z"/>
		<path class="st7" d="M506.64,358.336c-1.936,0-3.938-1.199-4.876-1.876l1.045-1.674c0.786,0.588,2.59,1.588,4.157,1.588
			c1.656,0,2.985-0.805,2.985-2.371c0-3.333-7.49-2.57-7.49-7.274c0-2.329,1.502-4.288,5.336-4.288c1.326,0,2.959,0.457,3.917,0.959
			l-0.849,1.783c-0.718-0.326-2.265-0.783-3.549-0.783c-1.371,0-2.656,0.522-2.656,2.048c0,2.831,7.553,2.285,7.553,7.247
			C512.213,356.157,510.168,358.336,506.64,358.336z"/>
		<path class="st7" d="M524.799,344.726h-4.855v13.28h-2.157v-13.28h-4.853v-1.958h11.865V344.726z"/>
		<path class="st7" d="M527.063,358.006v-15.238h2.176v15.238H527.063z"/>
		<path class="st7" d="M545.566,358.006h-1.522l-8.927-11.102v11.102h-1.959v-15.238h1.525l8.924,11.125v-11.125h1.959V358.006z"/>
		<path class="st7" d="M560.895,343.379l-0.763,1.893c-1.371-0.521-2.481-0.872-4.093-0.872c-3.027,0-5.246,2.265-5.246,5.988
			c0,3.941,2.219,5.986,5.246,5.986c1.134,0,2.244-0.413,3.265-0.979v-4.725h2.179v5.618c0,0-2.57,2.048-5.443,2.048
			c-5.071,0-7.642-3.227-7.642-7.948c0-4.508,2.57-7.947,7.642-7.947C557.912,342.44,559.589,342.791,560.895,343.379z"/>
		<path class="st7" d="M571.412,358.006h-2.179v-15.238h4.292c2.546,0,5.068,1.436,5.068,4.638c0,2.22-1.217,3.591-2.808,4.224
			l3.68,6.377h-2.505l-3.46-5.965h-2.089V358.006z M571.412,350.082h1.721c2.09,0,3.155-0.935,3.155-2.677
			c0-1.741-1.065-2.68-3.155-2.68h-1.721V350.082z"/>
		<path class="st7" d="M589.568,351.106h-5.093v4.941h5.853v1.958h-8.031v-15.238h7.794v1.958h-5.615v4.422h5.093V351.106z"/>
		<path class="st7" d="M596.622,358.336c-1.938,0-3.938-1.199-4.876-1.876l1.045-1.674c0.783,0.588,2.591,1.588,4.158,1.588
			c1.655,0,2.982-0.805,2.982-2.371c0-3.333-7.491-2.57-7.491-7.274c0-2.329,1.505-4.288,5.336-4.288
			c1.33,0,2.962,0.457,3.918,0.959l-0.849,1.783c-0.719-0.326-2.262-0.783-3.55-0.783c-1.371,0-2.653,0.522-2.653,2.048
			c0,2.831,7.553,2.285,7.553,7.247C602.195,356.157,600.15,358.336,596.622,358.336z"/>
		<path class="st7" d="M603.721,350.388c0-4.291,2.656-7.947,7.336-7.947c4.681,0,7.337,3.656,7.337,7.947
			c0,4.289-2.656,7.948-7.337,7.948C606.377,358.336,603.721,354.677,603.721,350.388z M616.218,350.388
			c0-3.766-2.202-5.988-5.161-5.988c-2.961,0-5.16,2.223-5.16,5.988c0,3.767,2.199,5.986,5.16,5.986
			C614.016,356.374,616.218,354.154,616.218,350.388z"/>
		<path class="st7" d="M630.694,352.869v-10.102h2.175v10.102c0,3.591-2.281,5.467-5.811,5.467c-3.528,0-5.834-1.876-5.834-5.467
			v-10.102h2.175v10.102c0,1.938,0.959,3.505,3.659,3.505C629.756,356.374,630.694,354.807,630.694,352.869z"/>
		<path class="st7" d="M638.748,358.006h-2.175v-15.238h4.288c2.547,0,5.072,1.436,5.072,4.638c0,2.22-1.22,3.591-2.808,4.224
			l3.677,6.377h-2.502l-3.463-5.965h-2.09V358.006z M638.748,350.082h1.722c2.089,0,3.157-0.935,3.157-2.677
			c0-1.741-1.068-2.68-3.157-2.68h-1.722V350.082z"/>
		<path class="st7" d="M661.042,343.379l-0.76,1.893c-1.371-0.521-2.484-0.872-4.096-0.872c-3.024,0-5.244,2.265-5.244,5.988
			c0,3.941,2.22,5.986,5.244,5.986c1.636,0,3.182-0.87,4.508-1.763l0.935,1.677c0,0-2.569,2.048-5.442,2.048
			c-5.071,0-7.639-3.227-7.639-7.948c0-4.508,2.567-7.947,7.639-7.947C658.063,342.44,659.736,342.791,661.042,343.379z"/>
		<path class="st7" d="M671.298,351.106h-5.093v4.941h5.855v1.958h-8.033v-15.238h7.793v1.958h-5.615v4.422h5.093V351.106z"/>
	</g>
	<g>
		<defs>
			<rect id="SVGID_1_" x="286.12" y="182.783" width="387.383" height="193.561"/>
		</defs>
		<clipPath id="SVGID_2_">
			<use xlink:href="#SVGID_1_"  style="overflow:visible;"/>
		</clipPath>
		<path class="st11" d="M623.762,182.783h-53.727c-2.06,0-4.042,0.745-5.592,2.092l-4.974,4.333c-1.543,1.351-2.558,3.217-2.84,5.25
			l-16.325,117.871c-0.335,2.43,0.392,4.899,2.012,6.763l4.956,5.689c1.614,1.866,3.956,2.935,6.435,2.935h24.919
			c2.054,0,4.036-0.742,5.595-2.095l4.974-4.333c1.549-1.354,2.552-3.217,2.831-5.247l4.282-30.929h2.971l14.372,34.306
			c0.653,1.556,1.736,2.867,3.131,3.796l4.627,3.081c1.4,0.932,3.033,1.421,4.713,1.421h27.955c2.896,0,5.559-1.448,7.138-3.876
			l4.585-7.045c1.579-2.428,1.816-5.448,0.65-8.099l-15.56-35.037c14.426-9.847,22.61-25.54,22.61-43.672
			C673.5,199.324,647.874,182.783,623.762,182.783 M556.443,313.191l-1.375-1.576l15.649-112.938l1.566-1.371h51.478
			c17.07,0,35.218,11.452,35.218,32.68c0,14.509-7.111,26.783-19.527,33.671c-2.313,1.291-3.927,3.632-4.288,6.265l-0.104,0.736
			c-0.217,1.567,0.009,3.169,0.653,4.615l16.138,36.336l-1.029,1.582H627.94l-1.603-1.063l-15.21-36.315
			c-1.329-3.173-4.409-5.229-7.861-5.229h-12.197c-4.22,0-7.849,3.161-8.434,7.351l-4.689,33.891l-1.566,1.365H556.443z
			 M496.857,182.783h-53.896c-2.057,0-4.048,0.745-5.591,2.092l-4.965,4.327c-1.555,1.353-2.567,3.217-2.84,5.256l-16.343,117.871
			c-0.332,2.436,0.398,4.899,2.018,6.763l4.968,5.704c1.62,1.852,3.956,2.92,6.422,2.92h55.246c14.34,0,27.896-4.32,38.194-12.167
			c12.066-9.197,18.447-22.127,18.447-37.399c0-9.028-3.144-17.717-8.749-24.542c8.393-8.028,12.957-18.928,12.957-31.196
			c0-12.654-5.354-23.192-15.468-30.481C519.068,186.032,508.277,182.783,496.857,182.783 M429.367,313.191l-1.374-1.576
			l15.643-112.938l1.579-1.371h51.643c8.393,0,16.174,2.273,21.911,6.407c6.262,4.505,9.434,10.796,9.434,18.696
			c0,9.882-4.326,18.305-12.176,23.708c-2.188,1.502-3.564,3.986-3.681,6.633c-0.112,2.659,1.036,5.253,3.084,6.944
			c5.437,4.499,8.562,11.227,8.562,18.453c0,10.565-4.397,19.509-12.729,25.857c-7.778,5.921-18.216,9.186-29.386,9.186H429.367z
			 M407.756,182.783h-24.919c-2.054,0-4.042,0.739-5.594,2.092l-4.956,4.318c-1.558,1.353-2.576,3.22-2.852,5.259l-10.44,75.263
			c-1.279,9.155-4.653,12.25-13.375,12.25c-7.182,0-7.182-1.261-7.182-4.994c0-1.401,0-2.252,0.189-3.398l10.461-75.403
			c0.341-2.442-0.401-4.902-2.012-6.763l-4.968-5.701c-1.617-1.857-3.959-2.923-6.425-2.923h-24.923
			c-2.051,0-4.039,0.739-5.591,2.092l-4.959,4.318c-1.559,1.353-2.567,3.22-2.846,5.259l-10.402,74.981
			c-0.573,3.479-0.84,6.941-0.84,10.9c0,15.459,5.356,28.252,15.497,37.01c9.918,8.559,23.7,12.895,40.972,12.895
			c38.165,0,62.998-20.696,68.129-56.798l10.44-75.281c0.33-2.437-0.4-4.894-2.012-6.751l-4.965-5.701
			C412.564,183.848,410.22,182.783,407.756,182.783 M345.619,296.486c15.901,0,25.498-8.562,27.76-24.771l10.131-73.037l1.576-1.371
			h19.94l1.375,1.579l-10.066,72.536c-4.057,28.564-23.145,44.295-53.742,44.295c-13.681,0-24.278-3.154-31.481-9.369
			c-6.849-5.914-10.467-14.903-10.467-26.015c0-3.14,0.208-5.87,0.676-8.719l10.117-72.937l1.576-1.371h19.94l1.374,1.579
			l-10.061,72.498c-0.353,2.14-0.353,3.816-0.353,5.588C323.914,293.104,335.716,296.486,345.619,296.486 M488.104,213.166h-16.192
			c-4.232,0-7.853,3.158-8.44,7.342l-2.113,15.26c-0.347,2.442,0.389,4.915,2.009,6.769c1.617,1.861,3.962,2.926,6.425,2.926h13.936
			c12.868,0,20.863-7.413,20.863-19.349C504.592,217.522,499.042,213.166,488.104,213.166 M476.687,230.939l0.46-3.252h10.957
			c0.777,0,1.392,0.027,1.878,0.053c-0.29,2.021-1.498,3.199-6.253,3.199H476.687z M615.684,214.848h-16.871
			c-4.229,0-7.855,3.164-8.432,7.339l-3.128,22.334c-0.338,2.449,0.404,4.917,2.013,6.775c1.626,1.852,3.965,2.926,6.425,2.926
			h14.773c15.592,0,24.904-8.182,24.904-21.875C635.368,221.719,627.644,214.848,615.684,214.848 M602.596,239.697l1.442-10.328
			h11.646c5.164,0,5.164,1.448,5.164,2.979c0,3.102,0,7.348-10.384,7.348H602.596z M482.379,261.156h-17.192
			c-4.237,0-7.867,3.163-8.44,7.359l-2.65,19.308c-0.324,2.437,0.403,4.897,2.024,6.758c1.614,1.857,3.959,2.917,6.416,2.917h14.96
			c15.082,0,23.73-7.238,23.73-19.851C501.227,267.317,494.181,261.156,482.379,261.156 M469.419,282.975l1.006-7.295h11.954
			c3.314,0,4.146,0.614,4.163,0.614c0.006,0.027,0.163,0.333,0.163,1.354c0,2.371,0,5.327-9.208,5.327H469.419z"/>
		<path class="st0" d="M484.316,240.854h-13.93c-1.134,0-2.208-0.49-2.947-1.338c-0.745-0.857-1.083-1.988-0.929-3.107l2.113-15.266
			c0.276-1.92,1.944-3.368,3.878-3.368h16.195c10.47,0,11.873,4.211,11.873,8.342C500.57,235.482,494.65,240.854,484.316,240.854
			 M478.09,292.893h-14.963c-1.125,0-2.202-0.49-2.943-1.339c-0.745-0.857-1.078-1.985-0.929-3.098l2.65-19.314
			c0.268-1.926,1.929-3.377,3.873-3.377h17.197c6.494,0,14.228,2.063,14.228,11.883C497.202,290.242,486.815,292.893,478.09,292.893
			 M519.229,249.912c9.141-6.289,14.174-16.055,14.174-27.499c0-9.333-3.924-17.094-11.349-22.438
			c-6.512-4.695-15.248-7.277-24.597-7.277h-53.376l-4.178,3.638l-16.174,116.722l4.131,4.739h54.605
			c12.186,0,23.61-3.594,32.179-10.129c9.514-7.256,14.544-17.461,14.544-29.525c0-8.594-3.728-16.619-10.229-22.002
			c-0.932-0.769-1.469-1.965-1.415-3.178C517.596,251.74,518.231,250.603,519.229,249.912 M407.715,192.698l4.131,4.742
			l-10.354,74.631c-4.36,30.665-25.614,48.254-58.306,48.254c-14.823,0-26.43-3.531-34.49-10.487
			c-7.897-6.811-12.069-17.017-12.069-29.502c0-3.401,0.229-6.348,0.727-9.351l10.352-74.649l4.179-3.638h23.756l4.137,4.742
			l-10.366,74.703c-0.297,1.766-0.297,3.181-0.297,4.828c0,6.398,1.772,14.903,17.1,14.903c13.657,0,21.242-6.799,23.198-20.794
			l10.363-74.744l4.176-3.638H407.715z M611.054,249.612h-14.77c-1.134,0-2.208-0.484-2.953-1.341
			c-0.736-0.849-1.074-1.982-0.917-3.104l3.125-22.341c0.262-1.917,1.926-3.371,3.864-3.371h16.874
			c9.44,0,15.076,4.819,15.076,12.895C631.354,247.368,618.634,249.612,611.054,249.612 M640.221,271.285l0.092-0.727
			c0.175-1.205,0.911-2.279,1.979-2.876c13.912-7.725,21.89-21.459,21.89-37.695c0-24.219-20.519-37.289-39.82-37.289H571.15
			l-4.175,3.638l-16.171,116.722l4.131,4.739h23.762l4.17-3.639l4.926-35.588c0.276-1.923,1.936-3.374,3.873-3.374h12.197
			c1.579,0,3,0.94,3.605,2.4l15.753,37.595l3.917,2.605h26.769l3.76-5.775l-17.152-38.615
			C640.224,272.736,640.125,272.012,640.221,271.285"/>
		<path class="st8" d="M484.316,240.854h-13.93c-1.134,0-2.208-0.49-2.947-1.338c-0.745-0.857-1.083-1.988-0.929-3.107l2.113-15.266
			c0.276-1.92,1.944-3.368,3.878-3.368h16.195c10.47,0,11.873,4.211,11.873,8.342C500.57,235.482,494.65,240.854,484.316,240.854z
			 M478.09,292.893h-14.963c-1.125,0-2.202-0.49-2.943-1.339c-0.745-0.857-1.078-1.985-0.929-3.098l2.65-19.314
			c0.268-1.926,1.929-3.377,3.873-3.377h17.197c6.494,0,14.228,2.063,14.228,11.883C497.202,290.242,486.815,292.893,478.09,292.893
			z M519.229,249.912c9.141-6.289,14.174-16.055,14.174-27.499c0-9.333-3.924-17.094-11.349-22.438
			c-6.512-4.695-15.248-7.277-24.597-7.277h-53.376l-4.178,3.638l-16.174,116.722l4.131,4.739h54.605
			c12.186,0,23.61-3.594,32.179-10.129c9.514-7.256,14.544-17.461,14.544-29.525c0-8.594-3.728-16.619-10.229-22.002
			c-0.932-0.769-1.469-1.965-1.415-3.178C517.596,251.74,518.231,250.603,519.229,249.912z M407.715,192.698l4.131,4.742
			l-10.354,74.631c-4.36,30.665-25.614,48.254-58.306,48.254c-14.823,0-26.43-3.531-34.49-10.487
			c-7.897-6.811-12.069-17.017-12.069-29.502c0-3.401,0.229-6.348,0.727-9.351l10.352-74.649l4.179-3.638h23.756l4.137,4.742
			l-10.366,74.703c-0.297,1.766-0.297,3.181-0.297,4.828c0,6.398,1.772,14.903,17.1,14.903c13.657,0,21.242-6.799,23.198-20.794
			l10.363-74.744l4.176-3.638H407.715z M611.054,249.612h-14.77c-1.134,0-2.208-0.484-2.953-1.341
			c-0.736-0.849-1.074-1.982-0.917-3.104l3.125-22.341c0.262-1.917,1.926-3.371,3.864-3.371h16.874
			c9.44,0,15.076,4.819,15.076,12.895C631.354,247.368,618.634,249.612,611.054,249.612z M640.221,271.285l0.092-0.727
			c0.175-1.205,0.911-2.279,1.979-2.876c13.912-7.725,21.89-21.459,21.89-37.695c0-24.219-20.519-37.289-39.82-37.289H571.15
			l-4.175,3.638l-16.171,116.722l4.131,4.739h23.762l4.17-3.639l4.926-35.588c0.276-1.923,1.936-3.374,3.873-3.374h12.197
			c1.579,0,3,0.94,3.605,2.4l15.753,37.595l3.917,2.605h26.769l3.76-5.775l-17.152-38.615
			C640.224,272.736,640.125,272.012,640.221,271.285z"/>
	</g>
	<g>
		<defs>
			<path id="SVGID_3_" d="M600.629,224.751h15.646c2.419,0,9.772,0,9.772,7.577c0,5.137-1.549,11.959-14.993,11.959h-13.158
				L600.629,224.751z M599.406,219.445c-1.941,0-3.605,1.445-3.873,3.362l-3.119,22.335c-0.154,1.125,0.181,2.261,0.923,3.107
				c0.739,0.855,1.813,1.344,2.947,1.344h14.77c7.589,0,20.3-2.24,20.3-17.266c0-8.072-5.636-12.883-15.079-12.883H599.406z
				 M550.805,313.046l16.171-116.733l4.175-3.636h53.211c19.302,0,39.82,13.07,39.82,37.295c0,16.233-7.978,29.974-21.898,37.695
				c-1.054,0.597-1.796,1.668-1.971,2.879l-0.092,0.721c-0.107,0.715,0.003,1.458,0.303,2.119l17.144,38.618l-3.76,5.778h-26.769
				l-3.917-2.608l-15.753-37.595c-0.617-1.457-2.021-2.404-3.605-2.404h-12.194c-1.946,0-3.6,1.451-3.876,3.375l-4.914,35.594
				l-4.182,3.639h-23.762L550.805,313.046z M570.635,187.374c-0.953,0-1.855,0.344-2.573,0.956l-4.971,4.333
				c-0.7,0.614-1.17,1.472-1.297,2.407l-16.337,117.874c-0.154,1.115,0.184,2.243,0.929,3.104l4.968,5.704
				c0.729,0.846,1.807,1.336,2.94,1.336h24.92c0.95,0,1.854-0.336,2.573-0.956l4.968-4.333c0.712-0.617,1.175-1.475,1.303-2.409
				l4.828-34.906h10.046l15.56,37.132c0.297,0.712,0.795,1.326,1.437,1.751l4.626,3.071c0.639,0.431,1.393,0.65,2.167,0.65h27.952
				c1.323,0,2.54-0.659,3.276-1.775l4.576-7.057c0.73-1.104,0.84-2.499,0.297-3.71l-17.171-38.687
				c15.165-8.758,23.83-23.97,23.83-41.886c0-27.665-23.249-42.598-45.12-42.598H570.635z"/>
		</defs>
		<clipPath id="SVGID_4_">
			<use xlink:href="#SVGID_3_"  style="overflow:visible;"/>
		</clipPath>
		
			<linearGradient id="SVGID_5_" gradientUnits="userSpaceOnUse" x1="353.5762" y1="347.1289" x2="358.2227" y2="347.1289" gradientTransform="matrix(0 -29.2079 -29.2079 0 10746.2813 10650.3125)">
			<stop  offset="0" style="stop-color:#EB624D"/>
			<stop  offset="0.1966" style="stop-color:#E65349"/>
			<stop  offset="1" style="stop-color:#D41838"/>
		</linearGradient>
		<rect x="545.303" y="187.374" class="st13" width="124.179" height="135.712"/>
	</g>
	<g>
		<defs>
			<path id="SVGID_6_" d="M369.405,271.056l10.369-74.738l4.182-3.642h23.753l4.14,4.742l-10.357,74.631
				c-4.36,30.671-25.608,48.26-58.306,48.26c-14.823,0-26.43-3.534-34.49-10.49c-7.894-6.814-12.066-17.008-12.066-29.502
				c0-3.401,0.226-6.351,0.718-9.348l10.357-74.652l4.172-3.642h23.771l4.122,4.742l-10.36,74.706
				c-0.297,1.76-0.297,3.181-0.297,4.832c0,6.398,1.778,14.903,17.1,14.903C359.87,291.859,367.455,285.061,369.405,271.056
				 M383.427,187.374c-0.944,0-1.852,0.344-2.564,0.956l-4.971,4.327c-0.709,0.617-1.175,1.478-1.303,2.413l-10.44,75.257
				c-1.588,11.378-6.95,16.228-17.937,16.228c-10.903,0-11.794-4.345-11.794-9.598c0-1.528,0-2.635,0.234-4.027l10.458-75.412
				c0.161-1.116-0.175-2.25-0.923-3.104l-4.962-5.701c-0.742-0.852-1.816-1.338-2.944-1.338h-24.919
				c-0.953,0-1.861,0.344-2.573,0.956l-4.965,4.327c-0.709,0.617-1.178,1.478-1.309,2.413l-10.411,75.103
				c-0.534,3.223-0.784,6.455-0.784,10.146c0,14.082,4.808,25.667,13.901,33.52c9.06,7.814,21.83,11.776,37.962,11.776
				c35.624,0,58.796-19.249,63.562-52.828l10.446-75.269c0.154-1.116-0.189-2.25-0.926-3.104l-4.968-5.701
				c-0.748-0.852-1.819-1.338-2.95-1.338H383.427z"/>
		</defs>
		<clipPath id="SVGID_7_">
			<use xlink:href="#SVGID_6_"  style="overflow:visible;"/>
		</clipPath>
		
			<linearGradient id="SVGID_8_" gradientUnits="userSpaceOnUse" x1="353.4878" y1="353.9014" x2="358.1343" y2="353.9014" gradientTransform="matrix(0 -29.7516 -29.7516 0 10883.4688 10842.4219)">
			<stop  offset="0" style="stop-color:#EB624D"/>
			<stop  offset="0.1966" style="stop-color:#E65349"/>
			<stop  offset="1" style="stop-color:#D41838"/>
		</linearGradient>
		<rect x="291.322" y="187.374" class="st2" width="126.025" height="138.241"/>
	</g>
	<g>
		<defs>
			<path id="SVGID_9_" d="M466.997,271.056h15.978c7.408,0,8.921,2.629,8.921,6.567c0,4.626-1.566,9.939-13.805,9.939h-13.357
				L466.997,271.056z M465.774,265.75c-1.941,0-3.6,1.448-3.87,3.371l-2.647,19.313c-0.151,1.119,0.184,2.25,0.929,3.102
				c0.739,0.849,1.816,1.339,2.938,1.339h14.966c8.725,0,19.112-2.65,19.112-15.251c0-9.82-7.739-11.874-14.228-11.874H465.774z
				 M473.722,223.063h14.981c6.57,0,6.57,1.276,6.57,3.039c0,6.434-3.484,9.432-10.957,9.432h-12.328L473.722,223.063z
				 M472.502,217.757c-1.935,0-3.603,1.448-3.867,3.368l-2.125,15.269c-0.154,1.122,0.184,2.25,0.929,3.099
				c0.742,0.86,1.813,1.344,2.938,1.344h13.939c10.334,0,16.266-5.369,16.266-14.735c0-4.128-1.415-8.345-11.879-8.345H472.502z
				 M423.729,313.046l16.174-116.728l4.175-3.642h53.379c9.354,0,18.085,2.588,24.597,7.28c7.425,5.351,11.349,13.105,11.349,22.438
				c0,11.449-5.037,21.21-14.168,27.501c-1.003,0.688-1.639,1.831-1.691,3.045c-0.054,1.223,0.475,2.407,1.415,3.182
				c6.502,5.383,10.238,13.405,10.238,22.008c0,12.058-5.039,22.267-14.55,29.52c-8.571,6.532-19.996,10.132-32.182,10.132h-54.605
				L423.729,313.046z M443.556,187.374c-0.941,0-1.855,0.344-2.564,0.956l-4.971,4.327c-0.709,0.617-1.175,1.478-1.3,2.413
				l-16.34,117.876c-0.151,1.118,0.187,2.246,0.926,3.101l4.965,5.704c0.748,0.846,1.819,1.336,2.953,1.336h55.241
				c13.337,0,25.914-3.983,35.401-11.212c10.882-8.304,16.634-19.967,16.634-33.743c0-9.58-3.918-18.56-10.806-24.911
				c9.695-7.324,15.011-18.201,15.011-30.825c0-11.114-4.683-20.355-13.548-26.745c-7.407-5.342-17.242-8.277-27.7-8.277H443.556z"
				/>
		</defs>
		<clipPath id="SVGID_10_">
			<use xlink:href="#SVGID_9_"  style="overflow:visible;"/>
		</clipPath>
		
			<linearGradient id="SVGID_11_" gradientUnits="userSpaceOnUse" x1="353.5762" y1="350.5781" x2="358.2227" y2="350.5781" gradientTransform="matrix(0 -29.2079 -29.2079 0 10718.1406 10650.3125)">
			<stop  offset="0" style="stop-color:#EB624D"/>
			<stop  offset="0.1966" style="stop-color:#E65349"/>
			<stop  offset="1" style="stop-color:#D41838"/>
		</linearGradient>
		<rect x="418.229" y="187.374" class="st14" width="120.476" height="135.712"/>
	</g>
	<g>
		<defs>
			<rect id="SVGID_12_" x="286.12" y="182.783" width="387.383" height="193.561"/>
		</defs>
		<clipPath id="SVGID_13_">
			<use xlink:href="#SVGID_12_"  style="overflow:visible;"/>
		</clipPath>
		<path class="st10" d="M599.403,222.535c-0.404,0-0.748,0.306-0.805,0.707l-3.119,22.332c-0.032,0.234,0.039,0.472,0.193,0.65
			c0.157,0.172,0.371,0.276,0.611,0.276h14.77c11.417,0,17.204-4.769,17.204-14.17c0-6.315-4.256-9.793-11.98-9.793H599.403z
			 M611.054,247.386h-14.77c-0.493,0-0.959-0.219-1.276-0.582c-0.323-0.371-0.469-0.864-0.406-1.347l3.122-22.344
			c0.118-0.831,0.837-1.457,1.68-1.457h16.874c8.298,0,12.865,3.79,12.865,10.672C629.143,242.314,623.059,247.386,611.054,247.386
			 M591.666,277.395h12.197c0.683,0,1.303,0.404,1.564,1.036l15.918,37.986l0.297,0.365l4.627,3.08
			c0.134,0.083,0.288,0.134,0.451,0.134h27.952c0.271,0,0.525-0.14,0.677-0.371l4.585-7.051c0.154-0.229,0.175-0.517,0.06-0.771
			l-17.456-39.31c-0.128-0.291-0.172-0.608-0.131-0.92l0.104-0.724c0.071-0.528,0.389-0.994,0.854-1.252
			c14.625-8.125,23.026-22.566,23.026-39.625c0-25.659-21.658-39.503-42.031-39.503h-53.727c-0.202,0-0.393,0.068-0.537,0.199
			l-4.969,4.324c-0.143,0.133-0.24,0.312-0.267,0.504l-16.337,117.87c-0.03,0.237,0.035,0.469,0.189,0.645l4.971,5.703
			c0.148,0.179,0.377,0.282,0.615,0.282h24.916c0.202,0,0.389-0.077,0.537-0.199l4.965-4.332c0.148-0.122,0.243-0.3,0.273-0.496
			l5-36.113C590.1,278.021,590.826,277.395,591.666,277.395 M654.673,320.878h-27.952c-0.339,0-0.665-0.096-0.936-0.282
			l-4.629-3.077c-0.282-0.188-0.493-0.451-0.626-0.757l-15.916-37.983c-0.131-0.309-0.421-0.508-0.751-0.508h-12.197
			c-0.397,0-0.751,0.306-0.804,0.704l-4.995,36.111c-0.057,0.406-0.255,0.777-0.566,1.05l-4.965,4.324
			c-0.309,0.268-0.703,0.419-1.119,0.419h-24.916c-0.493,0-0.959-0.214-1.282-0.582l-4.968-5.701
			c-0.324-0.371-0.47-0.863-0.396-1.344l16.331-117.876c0.06-0.404,0.259-0.778,0.562-1.051l4.971-4.324
			c0.303-0.267,0.706-0.418,1.116-0.418h53.727c20.797,0,42.915,14.156,42.915,40.39c0,17.385-8.559,32.11-23.477,40.396
			c-0.226,0.122-0.383,0.35-0.413,0.6l-0.104,0.721l0.065,0.442l17.452,39.313c0.241,0.528,0.188,1.131-0.121,1.614l-4.588,7.048
			C655.78,320.593,655.243,320.878,654.673,320.878"/>
		<path class="st10" d="M311.357,190.463c-0.196,0-0.386,0.08-0.531,0.202l-4.971,4.327c-0.146,0.127-0.241,0.306-0.271,0.499
			l-10.425,75.18c-0.507,3.057-0.745,6.122-0.745,9.648c0,13.144,4.439,23.929,12.832,31.17
			c8.476,7.317,20.566,11.027,35.936,11.027c33.917,0,55.967-18.278,60.499-50.151l10.44-75.266c0.033-0.24-0.039-0.472-0.19-0.65
			l-4.968-5.698c-0.154-0.184-0.376-0.288-0.614-0.288h-24.922c-0.196,0-0.383,0.08-0.531,0.202l-4.965,4.327
			c-0.154,0.127-0.25,0.306-0.276,0.499l-10.438,75.269c-1.798,12.892-8.476,18.895-21.002,18.895
			c-13.12,0-14.889-6.428-14.889-12.704c0-1.609,0-2.885,0.261-4.464l10.461-75.388c0.033-0.24-0.039-0.472-0.193-0.65l-4.968-5.698
			c-0.151-0.184-0.374-0.288-0.611-0.288H311.357z M343.183,323.403c-15.586,0-27.87-3.784-36.511-11.245
			c-8.601-7.413-13.138-18.426-13.138-31.84c0-3.576,0.237-6.68,0.748-9.785l10.425-75.159c0.06-0.404,0.261-0.778,0.567-1.051
			l4.971-4.324c0.303-0.267,0.701-0.418,1.113-0.418h24.919c0.493,0,0.956,0.214,1.282,0.582l4.962,5.704
			c0.326,0.368,0.469,0.863,0.403,1.35l-10.464,75.406c-0.25,1.52-0.25,2.757-0.25,4.327c0,10.9,7.224,11.814,14.005,11.814
			c12.001,0,18.402-5.761,20.124-18.13l10.44-75.26c0.059-0.404,0.258-0.778,0.57-1.051l4.962-4.324
			c0.309-0.267,0.706-0.418,1.116-0.418h24.922c0.493,0,0.956,0.214,1.276,0.582l4.971,5.704c0.317,0.368,0.469,0.863,0.404,1.35
			l-10.443,75.269C399.957,304.843,377.59,323.403,343.183,323.403"/>
		<path class="st10" d="M472.502,220.849c-0.4,0-0.75,0.303-0.807,0.7l-2.116,15.272c-0.036,0.231,0.039,0.463,0.19,0.644
			c0.154,0.175,0.38,0.282,0.611,0.282h13.942c5.998,0,13.152-2.024,13.152-11.648c0-2.974-0.641-5.25-8.771-5.25H472.502z
			 M484.322,238.625H470.38c-0.493,0-0.956-0.214-1.273-0.584c-0.327-0.368-0.472-0.858-0.407-1.348l2.122-15.266
			c0.116-0.828,0.834-1.46,1.68-1.46h16.201c8.084,0,9.662,2.252,9.662,6.131C498.365,231.812,495.929,238.625,484.322,238.625
			 M465.777,268.842c-0.403,0-0.745,0.303-0.804,0.707l-2.653,19.308c-0.03,0.231,0.041,0.466,0.199,0.644
			c0.151,0.176,0.371,0.273,0.608,0.273h14.963c10.785,0,16.019-3.974,16.019-12.147c0-7.781-5.953-8.784-11.135-8.784H465.777z
			 M478.09,290.66h-14.963c-0.489,0-0.952-0.213-1.276-0.581c-0.327-0.368-0.469-0.857-0.404-1.348l2.65-19.308
			c0.113-0.834,0.834-1.46,1.68-1.46h17.197c12.02,0,12.02,7.265,12.02,9.663C494.994,286.399,489.463,290.66,478.09,290.66
			 M443.559,190.469c-0.196,0-0.389,0.068-0.534,0.199l-4.968,4.324c-0.148,0.133-0.24,0.312-0.267,0.504l-16.34,117.87
			c-0.03,0.237,0.042,0.469,0.196,0.65l4.965,5.697c0.151,0.179,0.38,0.282,0.608,0.282h55.247c12.66,0,24.578-3.76,33.525-10.586
			c10.081-7.692,15.411-18.509,15.411-31.279c0-9.271-4.024-17.907-11.033-23.708c-0.407-0.341-0.639-0.858-0.618-1.386
			c0.024-0.525,0.307-1.024,0.73-1.318c9.758-6.716,15.129-17.129,15.129-29.327c0-10.072-4.24-18.453-12.259-24.234
			c-6.888-4.959-16.088-7.689-25.902-7.689H443.559z M482.465,320.878h-55.247c-0.484,0-0.95-0.214-1.276-0.582l-4.968-5.701
			c-0.321-0.371-0.463-0.863-0.398-1.344l16.331-117.876c0.057-0.41,0.252-0.778,0.567-1.051l4.968-4.324
			c0.312-0.267,0.709-0.418,1.116-0.418h53.89c10.001,0,19.382,2.792,26.415,7.864c8.269,5.95,12.637,14.583,12.637,24.946
			c0,12.494-5.511,23.169-15.509,30.057c-0.214,0.137-0.345,0.377-0.354,0.629c-0.009,0.252,0.099,0.504,0.291,0.659
			c7.224,5.971,11.363,14.865,11.363,24.394c0,13.061-5.454,24.118-15.765,31.982C507.417,317.052,495.326,320.878,482.465,320.878"
			/>
		<path class="st5" d="M372.987,271.566c-2.021,14.479-10.099,23.908-26.771,23.908c-14.651,0-20.715-7.075-20.715-18.524
			c0-1.68,0-3.366,0.335-5.384l10.446-75.272h-24.928l-10.44,75.272c-0.504,3.03-0.668,5.894-0.668,8.755
			c0,24.757,17.005,36.378,42.939,36.378c28.79,0,50.344-14.316,54.73-45.133l10.437-75.272h-24.925L372.987,271.566z"/>
		<path class="st5" d="M478.087,296.483h-23.582l4.716-34.351h23.753c11.277,0,17.854,5.564,17.854,15.494
			C500.828,291.771,490.044,296.483,478.087,296.483 M465.949,214.142h22.754c10.099,0,15.491,3.707,15.491,11.957
			c0,12.461-8.595,18.355-19.878,18.355h-22.575L465.949,214.142z M529.784,222.395c0-18.02-16.331-26.101-32.327-26.101h-53.901
			l-16.332,117.876h55.241c22.228,0,43.111-12.803,43.111-36.04c0-10.764-6.193-19.616-16.376-23.563l0.52-3.722
			C523.65,245.424,529.784,234.42,529.784,222.395"/>
		<path class="st5" d="M587.633,253.211l5.224-37.387h23.421c11.784,0,18.69,6.57,18.69,16.503c0,13.809-9.601,20.883-23.907,20.883
			H587.633z M635.834,266.777c13.352-5.576,24.727-17.498,24.727-36.808c0-21.219-17.675-33.677-36.199-33.677h-53.732
			l-16.328,117.879h24.916l5.896-42.604h23.754l17.854,42.604h27.952l-19.358-43.604L635.834,266.777z"/>
	</g>
	<g>
		<defs>
			<path id="SVGID_14_" d="M383.795,196.63l-10.381,74.904c-2.22,15.883-11.621,24.281-27.198,24.281
				c-14.028,0-21.145-6.378-21.145-18.949c0-1.67,0-3.407,0.341-5.445l10.375-74.792h-24.059l-10.396,74.916
				c-0.454,2.733-0.665,5.496-0.665,8.687c0,23.184,15.096,35.947,42.518,35.947c30.914,0,50.201-15.895,54.303-44.758
				l10.378-74.792H383.795z M458.842,261.613h24.124c11.616,0,18.281,5.805,18.281,15.93c0,16.77-14.509,19.278-23.157,19.278
				h-24.074L458.842,261.613z M465.584,213.632h23.119c10.559,0,15.918,4.164,15.918,12.384c0,11.755-7.591,18.783-20.305,18.783
				h-23.059L465.584,213.632z M443.926,196.63l-16.221,117.024h54.76c21.21,0,42.681-12.229,42.681-35.609
				c0-10.601-6.016-19.257-16.097-23.168l-0.314-0.122l0.6-4.306l0.231-0.092c12.577-4.894,19.794-15.12,19.794-28.056
				c0-17.726-16.02-25.67-31.902-25.67H443.926z M592.488,215.312h23.786c11.79,0,19.12,6.49,19.12,16.934
				c0,13.336-9.099,21.302-24.341,21.302h-23.901L592.488,215.312z M571.008,196.63l-16.227,117.024h24.07l5.895-42.601h24.402
				l17.854,42.601h27.012l-19.146-43.108l0.584-4.155l0.217-0.089c15.557-6.493,24.472-19.771,24.472-36.413
				c0-21.599-18.436-33.259-35.778-33.259H571.008z"/>
		</defs>
		<clipPath id="SVGID_15_">
			<use xlink:href="#SVGID_14_"  style="overflow:visible;"/>
		</clipPath>
		
			<linearGradient id="SVGID_16_" gradientUnits="userSpaceOnUse" x1="348.5044" y1="357.8301" x2="353.1509" y2="357.8301" gradientTransform="matrix(0 25.7283 25.7283 0 -8725.9844 -8769.7969)">
			<stop  offset="0" style="stop-color:#C9CCE5"/>
			<stop  offset="0.7372" style="stop-color:#FFFFFF"/>
			<stop  offset="1" style="stop-color:#FFFFFF"/>
		</linearGradient>
		<rect x="300.668" y="196.63" class="st3" width="359.472" height="119.55"/>
	</g>
	<g>
		<defs>
			<rect id="SVGID_17_" x="286.12" y="182.783" width="387.383" height="193.561"/>
		</defs>
		<clipPath id="SVGID_18_">
			<use xlink:href="#SVGID_17_"  style="overflow:visible;"/>
		</clipPath>
		<path class="st1" d="M408.353,196.206h-24.925l-10.44,75.272c-2.021,14.482-10.103,23.91-26.774,23.91
			c-14.648,0-20.709-7.074-20.709-18.521c0-1.688,0-3.368,0.333-5.389l10.446-75.272h-24.928l-10.44,75.272
			c-0.504,3.03-0.671,5.897-0.671,8.755c0,24.753,17.008,36.378,42.937,36.378c28.798,0,50.35-14.319,54.733-45.133L408.353,196.206
			z M454.506,296.4l4.71-34.354h23.759c11.277,0,17.854,5.552,17.854,15.491c0,14.147-10.784,18.863-22.741,18.863H454.506z
			 M461.741,244.362l4.208-30.303h22.748c10.104,0,15.497,3.698,15.497,11.948c0,12.464-8.595,18.355-19.878,18.355H461.741z
			 M497.457,196.206h-53.901l-16.332,117.873h55.247c22.222,0,43.105-12.793,43.105-36.033c0-10.767-6.193-19.613-16.376-23.569
			l0.52-3.718c13.931-5.425,20.064-16.429,20.064-28.454C529.784,204.283,513.453,196.206,497.457,196.206 M587.633,253.12
			l5.224-37.381h23.421c11.787,0,18.69,6.564,18.69,16.503c0,13.809-9.601,20.878-23.914,20.878H587.633z M624.361,196.206h-53.732
			l-16.328,117.873h24.916l5.896-42.601h23.754l17.854,42.601h27.952l-19.358-43.598l0.52-3.793
			c13.352-5.573,24.727-17.497,24.727-36.805C660.561,208.669,642.886,196.206,624.361,196.206 M407.371,197.057l-10.298,74.302
			c-4.075,28.626-23.213,44.399-53.893,44.399c-27.137,0-42.085-12.615-42.085-35.525c0-3.173,0.211-5.909,0.665-8.636
			l10.339-74.539h23.205L325,271.335c-0.35,2.089-0.35,3.84-0.35,5.532c0,12.85,7.256,19.371,21.563,19.371
			c15.817,0,25.367-8.523,27.617-24.641l10.336-74.539H407.371z M453.524,297.249h0.982h23.582c14.99,0,23.587-7.182,23.587-19.711
			c0-10.381-6.817-16.34-18.7-16.34h-23.759h-0.739l-0.107,0.733l-4.71,34.354L453.524,297.249z M460.768,245.217h0.973h22.575
			c12.978,0,20.729-7.185,20.729-19.21c0-8.5-5.505-12.806-16.349-12.806h-22.748h-0.736l-0.104,0.736l-4.208,30.312
			L460.768,245.217z M497.457,197.057c15.664,0,31.481,7.805,31.481,25.246c0,12.939-6.938,22.762-19.527,27.659l-0.472,0.181
			l-0.063,0.499l-0.517,3.725l-0.092,0.665l0.626,0.24c9.909,3.843,15.83,12.357,15.83,22.774c0,23.098-21.255,35.185-42.254,35.185
			h-54.273l16.097-116.172H497.457z M586.66,253.974h0.973h23.421c15.51,0,24.763-8.123,24.763-21.732
			c0-10.704-7.484-17.352-19.539-17.352h-23.421h-0.736l-0.106,0.73l-5.218,37.387L586.66,253.974z M624.361,197.057
			c17.141,0,35.356,11.502,35.356,32.826c0,16.467-8.825,29.6-24.204,36.024l-0.454,0.187l-0.074,0.481l-0.517,3.784l-0.035,0.249
			l0.101,0.22l18.83,42.402h-26.083l-17.628-42.084l-0.223-0.519h-0.563h-23.754h-0.744l-0.096,0.736l-5.793,41.868h-23.207
			l16.1-116.172H624.361z"/>
		<path class="st15" d="M460.231,262.726h23.759c5.383,0,9.65,1.297,12.689,3.698c-2.977-3.772-8.019-5.817-14.812-5.817h-23.75
			l-4.718,34.351h2.41L460.231,262.726z"/>
		<path class="st4" d="M460.231,262.726h23.759c5.383,0,9.65,1.297,12.689,3.698c-2.977-3.772-8.019-5.817-14.812-5.817h-23.75
			l-4.718,34.351h2.41L460.231,262.726z"/>
		<path class="st15" d="M337.295,196.885h-2.419l-10.141,73.153c-0.341,2.018-0.341,3.701-0.341,5.39
			c0,6.223,1.875,11.087,5.858,14.289c-2.501-3.104-3.733-7.193-3.733-12.17c0-1.688,0-3.371,0.338-5.392L337.295,196.885z"/>
		<path class="st4" d="M337.295,196.885h-2.419l-10.141,73.153c-0.341,2.018-0.341,3.701-0.341,5.39
			c0,6.223,1.875,11.087,5.858,14.289c-2.501-3.104-3.733-7.193-3.733-12.17c0-1.688,0-3.371,0.338-5.392L337.295,196.885z"/>
		<path class="st15" d="M593.877,216.421h23.415c5.532,0,9.936,1.487,13.108,4.045c-3.154-3.867-8.318-6.167-15.225-6.167h-23.414
			l-5.227,37.381h2.416L593.877,216.421z"/>
		<path class="st4" d="M593.877,216.421h23.415c5.532,0,9.936,1.487,13.108,4.045c-3.154-3.867-8.318-6.167-15.225-6.167h-23.414
			l-5.227,37.381h2.416L593.877,216.421z"/>
		<path class="st15" d="M487.593,212.611h-22.741l-4.211,30.312h2.416l3.911-28.193h22.748c4.941,0,8.733,0.902,11.342,2.778
			C498.647,214.187,494.119,212.611,487.593,212.611"/>
		<path class="st4" d="M487.593,212.611h-22.741l-4.211,30.312h2.416l3.911-28.193h22.748c4.941,0,8.733,0.902,11.342,2.778
			C498.647,214.187,494.119,212.611,487.593,212.611z"/>
		<path class="st15" d="M522.879,204.942c3.584,4.03,5.811,9.298,5.811,15.924c0,12.025-6.144,23.029-20.073,28.451l-0.522,3.715
			c0.801,0.312,1.525,0.704,2.273,1.072l0.367-2.668c13.931-5.422,20.067-16.426,20.067-28.451
			C530.802,215.136,527.698,209.177,522.879,204.942"/>
		<path class="st4" d="M522.879,204.942c3.584,4.03,5.811,9.298,5.811,15.924c0,12.025-6.144,23.029-20.073,28.451l-0.522,3.715
			c0.801,0.312,1.525,0.704,2.273,1.072l0.367-2.668c13.931-5.422,20.067-16.426,20.067-28.451
			C530.802,215.136,527.698,209.177,522.879,204.942z"/>
	</g>
	<polygon class="st9" points="607.766,270.038 584.01,270.038 578.116,312.64 555.605,312.64 555.315,314.758 580.24,314.758 
		586.135,272.154 608.65,272.154 	"/>
	<polygon class="st12" points="607.766,270.038 584.01,270.038 578.116,312.64 555.605,312.64 555.315,314.758 580.24,314.758 
		586.135,272.154 608.65,272.154 	"/>
	<g>
		<defs>
			<rect id="SVGID_19_" x="286.12" y="182.783" width="387.383" height="193.561"/>
		</defs>
		<clipPath id="SVGID_20_">
			<use xlink:href="#SVGID_19_"  style="overflow:visible;"/>
		</clipPath>
		<path class="st6" d="M396.806,270.038c-4.375,30.813-25.932,45.133-54.727,45.133c-13.809,0-25.05-3.333-32.576-10.152
			c7.443,8.253,19.524,12.269,34.695,12.269c28.796,0,50.353-14.316,54.728-45.133l10.44-75.27h-2.41L396.806,270.038z"/>
		<path class="st16" d="M396.806,270.038c-4.375,30.813-25.932,45.133-54.727,45.133c-13.809,0-25.05-3.333-32.576-10.152
			c7.443,8.253,19.524,12.269,34.695,12.269c28.796,0,50.353-14.316,54.728-45.133l10.44-75.27h-2.41L396.806,270.038z"/>
		<path class="st6" d="M636.853,267.367c13.352-5.57,24.729-17.497,24.729-36.802c0-10.167-4.084-18.299-10.349-24.039
			c5.045,5.564,8.229,12.945,8.229,21.917c0,19.305-11.381,31.229-24.729,36.808l-0.525,3.787l19.355,43.599h-26.716l0.888,2.121
			h27.952l-19.354-43.595L636.853,267.367z"/>
		<path class="st16" d="M636.853,267.367c13.352-5.57,24.729-17.497,24.729-36.802c0-10.167-4.084-18.299-10.349-24.039
			c5.045,5.564,8.229,12.945,8.229,21.917c0,19.305-11.381,31.229-24.729,36.808l-0.525,3.787l19.355,43.599h-26.716l0.888,2.121
			h27.952l-19.354-43.595L636.853,267.367z"/>
		<path class="st6" d="M518.412,260.2c3.858,4.401,6.063,10.055,6.063,16.399c0,23.24-20.88,36.04-43.105,36.04H428.53l-0.291,2.118
			h55.243c22.225,0,43.105-12.799,43.105-36.036C526.588,271.293,523.591,264.821,518.412,260.2"/>
		<path class="st16" d="M518.412,260.2c3.858,4.401,6.063,10.055,6.063,16.399c0,23.24-20.88,36.04-43.105,36.04H428.53
			l-0.291,2.118h55.243c22.225,0,43.105-12.799,43.105-36.036C526.588,271.293,523.591,264.821,518.412,260.2z"/>
	</g>
</g>
</svg>
