<?xml version="1.0" encoding="utf-8"?>
<!-- Generator: Adobe Illustrator 16.0.2, SVG Export Plug-In . SVG Version: 6.00 Build 0)  -->
<!DOCTYPE svg PUBLIC "-//W3C//DTD SVG 1.1//EN" "http://www.w3.org/Graphics/SVG/1.1/DTD/svg11.dtd">
<svg version="1.1" id="Layer_1" xmlns="http://www.w3.org/2000/svg" xmlns:xlink="http://www.w3.org/1999/xlink" x="0px" y="0px"
	 width="960px" height="560px" viewBox="0 0 960 560" style="enable-background:new 0 0 960 560;" xml:space="preserve">
<style type="text/css">
<![CDATA[
	.st0{fill:#F18238;}
	.st1{fill:#2C2E75;}
	.st2{fill:#CF3A45;}
	.st3{fill:#00A999;}
]]>
</style>
<g>
	<path class="st1" d="M428.831,197.734h6.988c3.144,0,5.136,1.422,5.136,5.125v18.987c0,3.552-1.992,5.127-5.136,5.127h-6.988
		V197.734z M428.831,240.657h8.271c11.688-0.326,19.794-7.864,19.961-19.684v-18.68c0-11.688-6.561-18.243-20.81-18.243h-23.538
		v99.815h16.098C428.637,283.099,428.831,240.657,428.831,240.657"/>
	<path class="st1" d="M630.109,251.213v13.828c0,3.953-3.116,5.788-7.069,5.788c-3.946,0-6.498-1.835-6.498-5.788v-61.025
		c0-3.532,2.552-5.796,6.498-5.796c3.953,0,7.069,2.265,7.069,5.796v44.634V251.213z M623.04,184.242
		c-14.828,0-22.6,8.199-22.6,19.773v61.025c0,11.581,7.771,19.776,22.6,19.776c14.976,0,22.606-8.195,22.606-19.776v-13.828v-2.563
		v-44.634C645.646,192.44,638.016,184.242,623.04,184.242"/>
	<polygon class="st1" points="597.856,198.01 597.856,184.325 597.791,184.325 581.71,184.325 581.639,184.325 567.417,231.123 
		567.417,198.01 567.417,184.325 551.271,184.325 551.31,272.525 552.598,272.525 554.653,272.525 554.653,274.589 554.653,284.055 
		567.417,284.055 581.726,237.051 581.737,284.055 597.845,284.055 597.845,198.01 	"/>
	<path class="st1" d="M482.127,247.188h-10.708l4.897-50.954h0.911L482.127,247.188z M501.461,269.489l-11.156-85.253h-27.061
		l-13.08,99.92h17.622l2.725-27.401h12.53l2.72,27.401h6.109v-9.563v-2.068h2.065h1.267
		C499.266,272.525,500.843,271.237,501.461,269.489"/>
	<path class="st1" d="M518.079,274.593c1.644-0.852,3.821-2.854,3.821-7.996v-72.789h8.16v80.784H518.079z M511.9,289.534v-5.378
		h22.704v5.378h17.983v-14.941h-4.538v-90.357h-44.127v82.361c0,3.564-0.905,7.996-8.721,7.996h-1.267v14.941H511.9z"/>
	<path class="st1" d="M408.311,238.841v-54.584h-23.397v11.927c4.951,6.328,7.927,14.141,7.927,22.614v20.042H408.311z"/>
	<path class="st3" d="M408.311,292.851v-54.586H392.84v45.668c0,3.077-0.424,6.053-1.16,8.918H408.311z"/>
	<path class="st2" d="M408.311,347.034V292.46h-16.517c-1.264,5.181-3.642,9.955-6.881,14.096v40.479H408.311z"/>
	<path class="st1" d="M594.893,306.197v-15.124h-50.855c1.312,0.726,9.227,5.507,10.819,15.124h8.512v95.173h17.811v-95.173H594.893
		z M510.998,291.073h-46.227V401.37h46.197c-0.47-0.224-8.848-4.21-11.112-15.13h-17.272v-32.621h16.78v-15.121h-16.78v-32.301
		h17.333c0.057-0.573,1.27-9.806,10.991-15.088C510.941,291.088,510.969,291.088,510.998,291.073"/>
	<path class="st1" d="M645.252,306.197v-15.121h-0.051h-17.787h-0.08l-15.74,51.733v-36.612h0.019v-15.121h-17.873l0.054,110.294
		h17.801l15.83-51.999l0.035,51.999h17.793V306.197L645.252,306.197z M552.598,380.25v-18.273h-17.336v18.273
		c0,4.406-3.478,6.45-7.888,6.45c-4.409,0-7.248-2.044-7.248-6.45v-68.08c0-3.935,2.839-6.45,7.248-6.45
		c4.41,0,7.888,2.516,7.888,6.45v18.294h17.336V312.17c0-12.913-8.524-22.059-25.224-22.059c-16.54,0-25.211,9.146-25.211,22.059
		v68.08c0,12.922,8.671,22.07,25.211,22.07C544.073,402.32,552.598,393.172,552.598,380.25 M463.077,380.566v-20.643
		c0-6.776-3.472-11.816-10.09-14.503c5.513-2.68,8.354-7.239,8.354-13.547v-20.646c0-12.904-7.251-20.152-23.009-20.152H412.33
		V401.37h26.947C455.822,401.37,463.077,393.482,463.077,380.566 M443.534,332.818c0,3.944-2.205,5.68-5.668,5.68h-7.729v-32.301
		h7.729c3.463,0,5.668,1.574,5.668,5.668V332.818z M445.264,380.25c0,4.406-2.205,5.99-5.987,5.99h-9.14v-32.621h9.14
		c3.782,0,5.987,2.047,5.987,5.991V380.25z"/>
	<path class="st1" d="M399.288,398.538c0,1.76-1.363,3.182-3.06,3.182h-92.072c-1.691,0-3.054-1.422-3.054-3.182v-4.506
		c0-1.757,1.362-3.179,3.054-3.179l45.961-4.551l46.111,4.551c1.697,0,3.06,1.422,3.06,3.179V398.538z"/>
	<path class="st1" d="M354.062,315.478c0,2.513-1.963,4.565-4.386,4.565c-2.423,0-4.396-2.053-4.396-4.565
		c0-2.519,1.972-4.565,4.396-4.565C352.099,310.912,354.062,312.959,354.062,315.478 M367.098,269.507v-6.089h20.857v-8.987h-20.857
		v-6.098h20.857v-8.976h-20.857v-6.104h20.857v-8.981h-20.857v-6.089h20.792c-0.365-18.088-16.018-32.668-35.331-32.668h-6.391
		c-19.316,0-34.963,14.58-35.322,32.668h21.147v6.089h-21.216v8.981h21.216v6.104h-21.216v8.976h21.216v6.098h-21.216v8.987h21.216
		v6.089h-21.216v8.984h21.216v6.09h-21.147c0.299,15.073,11.267,27.565,26.063,31.368c0.194,4.87,3.101,8.99,7.195,10.78v65.391
		h11.15v-65.385c4.153-1.796,7.093-6.018,7.215-10.968c14.464-4.004,25.13-16.341,25.42-31.187h-20.792v-6.09h20.857v-8.984H367.098
		z"/>
	<rect x="384.914" y="347.187" class="st0" width="23.397" height="54.593"/>
</g>
</svg>
