<?xml version="1.0" encoding="utf-8"?>
<!-- Generator: Adobe Illustrator 16.0.2, SVG Export Plug-In . SVG Version: 6.00 Build 0)  -->
<!DOCTYPE svg PUBLIC "-//W3C//DTD SVG 1.1//EN" "http://www.w3.org/Graphics/SVG/1.1/DTD/svg11.dtd">
<svg version="1.1" id="Layer_1" xmlns="http://www.w3.org/2000/svg" xmlns:xlink="http://www.w3.org/1999/xlink" x="0px" y="0px"
	 width="960px" height="560px" viewBox="0 0 960 560" style="enable-background:new 0 0 960 560;" xml:space="preserve">
<style type="text/css">
<![CDATA[
	.st0{fill-rule:evenodd;clip-rule:evenodd;fill:#080808;}
	.st1{fill-rule:evenodd;clip-rule:evenodd;fill:#0E0E0E;}
	.st2{fill-rule:evenodd;clip-rule:evenodd;}
	.st3{fill-rule:evenodd;clip-rule:evenodd;fill:#F57446;}
	.st4{fill-rule:evenodd;clip-rule:evenodd;fill:#F57447;}
	.st5{fill-rule:evenodd;clip-rule:evenodd;fill:#F57547;}
	.st6{fill-rule:evenodd;clip-rule:evenodd;fill:#F57548;}
	.st7{fill-rule:evenodd;clip-rule:evenodd;fill:#F5774B;}
	.st8{fill-rule:evenodd;clip-rule:evenodd;fill:#F5794D;}
	.st9{fill-rule:evenodd;clip-rule:evenodd;fill:#F67B4F;}
	.st10{fill-rule:evenodd;clip-rule:evenodd;fill:#010101;}
	.st11{fill-rule:evenodd;clip-rule:evenodd;fill:#020202;}
	.st12{fill-rule:evenodd;clip-rule:evenodd;fill:#040404;}
]]>
</style>
<g>
	<path class="st4" d="M367.441,213.688c-4.267-15.566-13.72-25.515-28.675-34.551c-1.415-0.851-2.345-1.171-3.757-1.709
		c-5.445-2.072-11.206-2.726-16.877-3.757c-16.884-1.982-33.836-0.761-50.76-0.869c-4.583-0.029-6.335,2.115-6.354,7.144
		c-0.075,19.463-0.162,38.933,0.04,58.4c0,5.391,0,10.089,0,15.296c0.043,15.933,0.944,31.854,1.009,47.79
		c0.018,4.317,1.034,5.301,5.384,5.309c12.01,0.015,24.024-0.029,36.042,0.021c7.865,0.025,15.627-0.841,23.334-2.342
		c20.932-4.102,34.458-16.374,40.327-36.868C372.276,249.655,372.341,231.575,367.441,213.688z M279.734,191.406
		c-0.007-1.792,0.474-2.399,2.324-2.371c12.474,0.216,25.016-0.693,37.364,1.817c6.572,1.333,14.481,4.842,19.172,8.717
		c5.876,4.845,8.742,11.691,10.502,18.871c3.613,14.715,3.577,29.48-0.169,44.216c-4.12,16.206-14.801,24.833-31.014,27.426
		c-11.931,1.911-23.935,1.301-35.93,1.516c-1.939,0.032-2.256-0.747-2.241-2.449L279.734,191.406z"/>
	<path class="st6" d="M548.904,309.312c0-2.32-0.015-3.821,0.007-5.337c0.011-0.775,0.087-1.577,1.117-1.652
		c0.959-0.071,1.268,0.636,1.44,1.415c0.054,0.244,0.086,0.499,0.079,0.747c-0.058,4.806,0.251,9.607-0.227,14.402
		c-0.093,0.938,0.126,2.324-1.364,2.177c-1.024-0.104-1.143-1.271-1.049-2.158c0.689-6.702-3.94-10.05-8.609-13.088
		c-4.472-2.913-12.161-1.642-15.785,2.122c-4.418,4.568-3.315,11.784,2.273,14.77c4.307,2.287,9.18,2.607,13.788,3.828
		c1.092,0.287,2.216,0.471,3.294,0.809c6.752,2.104,9.209,5.574,8.95,12.57c-0.227,6.249-4.231,11.134-10.1,12.545
		c-7.252,1.738-13.483,0.177-18.655-5.308c-0.488-0.514-0.865-1.286-1.914-1.235c-0.144,1.469-0.291,2.959-0.449,4.449
		c-0.086,0.83-0.409,1.52-1.383,1.379c-0.718-0.104-1.002-0.707-1.002-1.39c-0.007-5.187-0.015-10.369,0-15.548
		c0-0.826,0.319-1.522,1.301-1.451c1.034,0.064,0.969,0.952,1.135,1.667c0.431,1.842-0.28,3.879,0.726,5.588
		c4.783,8.124,13.615,12.058,22.598,7.435c4.056-2.086,5.618-5.606,5.255-10.042c-0.341-4.095-3.014-6.321-6.583-7.427
		c-3.358-1.042-6.846-1.682-10.29-2.429c-2.228-0.47-4.425-1.023-6.498-1.964c-5.843-2.647-8.461-7.241-7.635-13.34
		c0.797-5.868,5.609-10.549,11.521-11.414c6.684-0.98,12.223,0.809,16.37,6.317C547.496,308.127,547.906,308.403,548.904,309.312z"
		/>
	<path class="st4" d="M707.481,308.641c0-1.678-0.015-3.266,0.007-4.846c0.015-0.852,0.355-1.498,1.332-1.437
		c0.823,0.043,0.988,0.715,0.988,1.351c0.021,5.305,0.028,10.62,0.004,15.933c-0.004,0.769-0.234,1.638-1.275,1.396
		c-1.103-0.255-1.149-1.285-1.056-2.162c0.696-6.727-3.897-10.196-8.659-13.026c-4.522-2.701-9.572-2.112-14.047,0.639
		c-3.086,1.896-4.73,4.942-4.476,8.652c0.266,3.887,2.421,6.563,5.994,8.049c4.458,1.854,9.228,2.489,13.911,3.463
		c7.219,1.512,10.695,5.107,11.155,10.943c0.94,12.067-9.016,16.77-18.713,15.254c-4.834-0.758-8.397-3.778-11.77-7.528
		c-1.023,1.846-0.471,3.498-0.668,5.039c-0.083,0.636-0.126,1.3-0.963,1.364c-0.958,0.076-1.364-0.495-1.364-1.368
		c-0.015-5.187-0.015-10.372-0.011-15.559c0-0.854,0.334-1.512,1.3-1.458c1.06,0.061,1.113,0.955,1.023,1.674
		c-0.693,5.596,2.755,8.929,6.612,11.952c3.966,3.114,8.491,3.577,13.289,2.439c3.498-0.823,6.3-2.532,7.905-5.88
		c2.525-5.276,0.481-10.581-4.975-12.7c-3.426-1.332-7.075-1.817-10.631-2.676c-2.083-0.491-4.195-0.944-6.195-1.688
		c-6.106-2.26-8.89-6.817-8.318-13.308c0.506-5.682,5.093-10.642,10.843-11.59c6.228-1.041,11.827-0.025,16.145,5.111
		C705.477,307.394,705.962,308.393,707.481,308.641z"/>
	<path class="st3" d="M636.087,310.221c1.314-1.513,2.601-3.042,3.937-4.529c6.713-7.485,20.364-5.732,23.558,5.56
		c0.826,2.935,1.39,5.88,1.379,8.943c-0.032,8.222-0.015,16.442-0.007,24.653c0,3.832,0.025,3.721,3.896,4.23
		c1.242,0.158,3.646-0.941,3.531,1.494c-0.104,2.27-2.371,1.242-3.675,1.293c-3.53,0.15-7.079,0.064-10.613,0.036
		c-0.977-0.008-2.202,0.165-2.233-1.351c-0.025-1.487,1.148-1.376,2.154-1.44c4.964-0.276,4.536,0.04,4.551-5.107
		c0.015-7.711,0.015-15.43,0-23.134c-0.011-3.44-0.46-6.806-1.969-9.941c-3.368-6.992-11.597-8.914-17.455-3.843
		c-4.895,4.238-8.39,9.137-7.908,16.313c0.488,7.298,0.205,14.664,0.058,21.991c-0.058,2.575,0.7,3.616,3.368,3.652
		c1.143,0.015,3.624-0.897,3.358,1.681c-0.208,1.976-2.224,1.113-3.444,1.149c-3.667,0.111-7.334,0.051-10.997,0.032
		c-1.027-0.003-2.141,0.008-2.076-1.501c0.054-1.257,1.034-1.167,1.918-1.293c5.538-0.801,5.538-0.812,5.538-6.407
		c0-11.123,0.008-22.25,0-33.377c-0.007-3.922-0.015-3.915-3.879-3.986c-0.88-0.019-1.785,0.021-2.633-0.169
		c-0.883-0.187-1.056-0.974-0.987-1.789c0.068-0.754,0.578-1.103,1.268-1.117c2.403-0.028,4.802-0.067,7.205-0.014
		c1.44,0.035,1.407,1.171,1.407,2.212c0,1.86,0,3.718,0,5.578C635.588,310.099,635.839,310.159,636.087,310.221z"/>
	<path class="st5" d="M485.483,309.398c1.304-2.615,0.765-4.152,0.97-5.61c0.09-0.61,0.072-1.314,0.92-1.415
		c0.977-0.115,1.379,0.484,1.407,1.336c0.047,1.516,0.032,3.031,0.032,4.554c0,3.412,0.015,6.824-0.011,10.243
		c-0.007,1.085,0.23,2.626-1.415,2.496c-1.364-0.107-0.891-1.583-0.94-2.503c-0.338-6.45-6.073-13.002-12.219-13.957
		c-5.039-0.783-8.879,1.099-11.799,5.136c-6.188,8.556-6.45,25.034-0.531,33.848c4.996,7.435,14.729,8.695,21.456,2.759
		c1.042-0.924,1.986-1.954,2.981-2.924c0.553-0.542,1.192-1.135,1.961-0.535c0.772,0.606,0.927,1.555,0.413,2.396
		c-0.991,1.645-2.479,2.845-3.958,4.029c-8.473,6.807-20.214,4.914-25.343-4.644c-5.922-11.019-5.955-22.702-0.711-33.919
		c5.337-11.396,16.457-12.808,25.253-3.771C484.471,307.444,484.754,308.202,485.483,309.398z"/>
	<path class="st12" d="M496.524,223.25c0-4.684-0.094-9.374,0.039-14.05c0.072-2.428-0.672-3.56-3.226-3.2
		c-0.991,0.14-2.021,0.043-3.034-0.015c-0.877-0.054-1.351-0.563-1.344-1.476c0.008-0.898,0.453-1.415,1.34-1.505
		c0.499-0.046,1.009-0.018,1.512-0.032c4.702-0.158,4.705-0.158,4.713-4.705c0.003-3.922-0.029-7.851,0.018-11.766
		c0.019-1.031-0.467-2.636,1.293-2.579c1.494,0.05,0.941,1.541,0.952,2.417c0.064,4.048,0.021,8.103,0.028,12.15
		c0.015,4.468,0.021,4.468,4.321,4.482c2.657,0.003,5.315-0.054,7.973,0.025c1.11,0.032,2.755-0.646,2.855,1.426
		c0.104,2.155-1.576,1.548-2.689,1.569c-3.287,0.076-6.584,0.115-9.87-0.003c-1.817-0.058-2.604,0.722-2.575,2.406
		c0.193,10.487-0.543,20.993,0.527,31.466c0.194,1.925,0.834,3.71,1.832,5.33c2.338,3.761,6.634,4.885,10.574,2.834
		c1.361-0.704,2.471-1.738,3.602-2.758c0.64-0.575,1.063-2.126,2.328-1.128c1.408,1.106,0.538,2.241-0.338,3.226
		c-2.931,3.311-6.559,5.229-11.029,4.644c-4.472-0.578-7.058-3.56-8.491-7.676c-0.884-2.528-1.311-5.128-1.311-7.801
		C496.527,232.103,496.527,227.674,496.524,223.25z"/>
	<path class="st11" d="M573.212,215.732c0,9.478-0.003,18.957,0.008,28.435c0.003,3.796,0.021,3.796,3.685,3.843
		c0.754,0.014,1.516,0,2.273,0.036c1.01,0.054,1.609,0.51,1.613,1.642c0.003,1.282-0.819,1.361-1.757,1.361
		c-4.676,0-9.349,0.014-14.032,0c-0.952,0-1.757-0.273-1.778-1.466c-0.018-1.171,0.751-1.469,1.717-1.551
		c0.126-0.014,0.255,0,0.381-0.014c1.717-0.216,3.922,0.808,5.054-0.571c1.171-1.422,0.409-3.642,0.409-5.506
		c0.032-17.057,0.029-34.117,0.015-51.181c0-3.918-0.008-3.918-3.836-3.976c-0.507-0.007-1.013,0.007-1.516-0.003
		c-1.042-0.014-2.119-0.025-2.202-1.44c-0.111-1.799,1.25-1.526,2.346-1.598c7.621-0.499,7.621-0.499,7.621,6.975
		C573.212,199.057,573.212,207.393,573.212,215.732z"/>
	<path class="st9" d="M569.814,325.424c0,6.572,0.079,13.152-0.039,19.736c-0.047,2.449,0.441,3.774,3.304,3.627
		c1.444-0.075,4.231-1.232,4.041,1.685c-0.158,2.327-2.669,1.188-4.116,1.253c-3.663,0.155-7.334,0.051-11.001,0.051
		c-1.06,0-2.22-0.043-2.316-1.361c-0.111-1.602,1.163-1.62,2.349-1.724c5.061-0.417,5.061-0.432,5.061-5.445
		c0-11.386,0.004-22.774-0.007-34.163c-0.004-3.739-0.021-3.742-3.61-3.814c-0.632-0.021-1.264,0-1.896-0.032
		c-1.157-0.072-2.022-0.614-1.958-1.832c0.062-1.231,1.006-1.642,2.151-1.623c0.252,0.007,0.503,0,0.755,0
		c8.415,0.028,7.204-0.586,7.276,6.942C569.854,314.286,569.814,319.854,569.814,325.424z"/>
	<path class="st1" d="M412.039,225.613c0,6.307,0.097,12.625-0.054,18.938c-0.065,2.521,0.502,3.674,3.304,3.516
		c1.455-0.079,4.234-1.199,4.148,1.559c-0.083,2.636-2.77,1.343-4.281,1.415c-3.653,0.188-7.323,0.043-10.979,0.062
		c-1.078,0.011-2.155-0.036-2.206-1.404c-0.05-1.282,0.905-1.602,2.019-1.728c1.713-0.184,3.969,0.84,5.025-0.6
		c1.16-1.569,0.388-3.897,0.395-5.886c0.046-10.484,0.025-20.964,0.021-31.445c-0.003-3.947-0.018-3.947-3.825-3.998
		c-0.625-0.007-1.26,0-1.889-0.007c-1.013-0.025-1.706-0.417-1.695-1.556c0.007-1.12,0.654-1.544,1.703-1.522
		c0.125,0.007,0.251,0.014,0.377,0c7.938-0.765,7.938-0.765,7.938,7.122C412.039,215.255,412.039,220.434,412.039,225.613z"/>
	<path class="st1" d="M479.607,225.555c0,6.436,0.101,12.876-0.054,19.312c-0.058,2.525,0.776,3.276,3.251,3.2
		c1.472-0.043,4.227-1.207,4.209,1.505c-0.018,2.712-2.729,1.397-4.231,1.469c-3.656,0.188-7.319,0.051-10.979,0.062
		c-1.045,0-2.188,0.047-2.252-1.354c-0.068-1.544,1.117-1.667,2.328-1.782C477,247.482,477,247.46,477,242.296
		c0-10.857-0.068-21.722,0.051-32.572c0.028-2.615-0.367-4.041-3.448-3.771c-1.329,0.119-3.851,1.167-3.904-1.415
		c-0.064-2.687,2.457-1.519,3.811-1.526c7.076-0.036,6.023-0.959,6.085,5.876C479.64,214.443,479.607,219.996,479.607,225.555z"/>
	<path class="st9" d="M506.042,325.696c0,6.447,0.115,12.887-0.054,19.323c-0.072,2.708,0.538,4.17,3.523,3.688
		c0.366-0.061,0.758-0.021,1.131-0.003c1.096,0.061,2.496-0.267,2.611,1.4c0.137,2.036-1.49,1.645-2.672,1.659
		c-4.17,0.032-8.34,0.018-12.51,0.007c-1.017-0.003-2.188,0.051-2.224-1.386c-0.028-1.304,0.938-1.566,2.051-1.695
		c1.706-0.201,3.897,0.851,5.007-0.654c1.103-1.49,0.385-3.67,0.398-5.549c0.033-10.986,0.021-21.98,0.008-32.975
		c0-4.284,0.445-4.306-3.958-4.252c-0.503,0.007-1.01-0.015-1.516-0.021c-1.157-0.019-2.012-0.485-2.012-1.739
		c0.008-1.278,0.931-1.569,2.044-1.73c7.051-1.013,8.171-0.09,8.171,6.871C506.042,314.322,506.042,320.008,506.042,325.696z"/>
	<path class="st8" d="M571.294,290.039c-0.315,1.702-0.456,3.735-3.01,3.954c-1.842,0.162-3.447-1.49-3.394-3.735
		c0.047-1.95,0.518-3.864,3.002-4.102C569.8,285.97,571.229,287.579,571.294,290.039z"/>
	<path class="st0" d="M413.565,191.733c-0.337,1.828-0.772,3.717-3.286,3.617c-2.489-0.1-2.953-2.033-3.046-3.958
		c-0.101-2.209,1.433-3.875,3.269-3.717C412.9,187.887,413.443,189.604,413.565,191.733z"/>
	<path class="st0" d="M481.142,191.464c-0.263,1.868-0.579,3.8-3.071,3.882c-2.496,0.086-3.203-1.785-3.236-3.725
		c-0.035-1.925,0.543-3.872,3.014-3.933C480.265,187.631,480.926,189.363,481.142,191.464z"/>
	<path class="st7" d="M507.295,289.859c-0.075,2.087-0.348,4.03-2.905,4.12c-2.514,0.09-3.171-1.839-3.254-3.786
		c-0.086-1.989,0.593-3.857,3.017-4.008C506.746,286.023,507.155,287.924,507.295,289.859z"/>
	<path class="st10" d="M466.017,214.278c0.065-1.896,0.022-3.793,0.022-5.686c0-6.655-0.938-8.11-7.216-5.671
		c-4.698,1.832-8.031,0.402-12.068-0.496c-10.602-2.36-19.197,2.741-20.716,12.276c-0.761,4.77-0.578,9.632,2.08,13.935
		c1.049,1.706,0.765,2.59-0.83,3.642c-2.676,1.782-3.056,4.457-2.334,7.392c0.528,2.126,2.467,3.092,3.972,4.594
		c-0.517,0.456-0.97,0.873-1.437,1.271c-4.522,3.879-5.413,8.96-4.479,14.449c0.931,5.427,4.504,8.642,9.64,10.074
		c6.458,1.807,13.012,1.847,19.449,0.012c7.27-2.069,10.333-6.764,10.143-14.819c-0.162-6.767-3.943-11.134-11.044-12.948
		c-5.366-1.368-10.811-0.671-16.224-0.854c-1.638-0.054-3.279,0.064-4.881-0.456c-2.521-0.83-3.531-2.561-2.755-4.885
		c0.679-2.011,3.674-3.624,5.441-2.622c3.814,2.173,7.901,2.378,12.082,2.134c7.607-0.438,13.185-5.305,14.176-12.761
		c0.614-4.658,0.381-9.338-2.032-13.626c-0.531-0.938-1.541-1.943-0.27-2.992c1.71-1.412,3.796-1.247,5.797-1.045
		c1.394,0.147,1.188,1.437,1.21,2.403c0.047,2.273-0.014,4.547,0.032,6.824c0.015,0.797-0.334,1.961,1.006,2.033
		C466.455,216.544,465.988,215.176,466.017,214.278z M432.468,245.966c3.354-1.307,6.86-1.516,10.706-1.479
		c3.377-0.065,6.997,0.348,10.388,1.868c4.339,1.943,6.508,5.66,6.311,10.649c-0.19,4.629-2.468,7.994-6.785,9.518
		c-6.846,2.402-13.849,2.567-20.73,0.101c-4.985-1.8-7.216-5.244-7.187-10.344C425.191,251.192,427.565,247.87,432.468,245.966z
		 M455.824,224.98c-1.907,5.391-5.94,7.611-13.39,7.604c-11.816-0.007-18.242-10.836-12.589-21.355
		c3.226-5.991,8.965-6.382,14.801-6.063c5.15,0.291,9.273,2.374,11.146,7.574C457.25,216.803,457.261,220.933,455.824,224.98z"/>
	<path class="st4" d="M444.554,309.93c-3.391-5.484-7.938-8.879-14.848-8.714c-6.648,0.169-10.983,3.553-13.702,9.108
		c-5.283,10.822-5.434,21.927-0.331,32.835c4.012,8.573,10.843,11.575,19.966,9.23c4.044-1.042,7.111-3.703,9.841-6.738
		c0.743-0.837,0.962-1.831,0.018-2.693c-0.977-0.897-1.584,0.025-2.201,0.604c-0.916,0.865-1.746,1.828-2.698,2.661
		c-6.519,5.682-16.137,4.853-21.072-1.871c-2.917-3.973-4.224-8.526-4.608-13.411c-0.165-2.13,0.564-2.924,2.759-2.858
		c4.421,0.136,8.846,0.043,13.267,0.043c4.676-0.008,9.349-0.058,14.025,0.021c2.112,0.024,2.892-0.884,2.981-2.941
		C448.181,319.792,447.444,314.603,444.554,309.93z M442.736,325.115c-4.167-0.123-8.336-0.036-12.499-0.036
		c-4.295,0-8.595-0.058-12.883,0.028c-1.954,0.036-2.727-0.589-2.518-2.657c0.485-4.763,1.994-9.098,4.935-12.873
		c4.996-6.429,13.738-7.111,19.625-1.516c4.044,3.836,5.836,8.695,6.164,14.205C445.685,324.414,444.877,325.176,442.736,325.115z"
		/>
	<path class="st10" d="M556.723,248.075c-3.997-0.183-4.004-0.104-4.004-4.249c-0.015-8.968,0.122-17.951-0.051-26.912
		c-0.183-9.935-7.054-15.861-16.881-14.776c-4,0.445-7.491,2.097-10.437,4.884c-0.819,0.779-1.376,1.703-0.711,2.651
		c0.944,1.357,1.752,0.05,2.464-0.467c1.433-1.034,2.88-2.029,4.507-2.754c8.667-3.854,17.104,0.248,18.529,9.09
		c0.259,1.605,0.025,3.279,0.19,4.913c0.219,2.224-0.79,2.845-2.862,2.794c-4.17-0.097-8.34-0.144-12.51,0.007
		c-6.469,0.233-11.511,4.417-13.084,10.635c-1.599,6.274,0.747,13.142,5.517,16.137c5.395,3.395,12.018,2.787,17.218-1.476
		c1.918-1.577,3.369-3.606,5.574-5.886c0.079,1.214,0.115,1.595,0.115,1.968c0.086,6.522,0.086,6.559,6.641,6.386
		c1.207-0.028,3.229,0.798,3.262-1.382C560.239,247.108,558.002,248.132,556.723,248.075z M542.766,246.423
		c-4.525,3.695-11.813,3.462-15.709-0.316c-3.786-3.681-4.253-10.839-1.006-15.415c2.062-2.913,5.035-4.12,8.451-4.335
		c2.267-0.14,4.543-0.029,6.824-0.029c0-0.021,0-0.043,0-0.068c2.273,0,4.551,0.025,6.831-0.007
		c1.308-0.021,1.989,0.313,2.194,1.864C551.361,235.727,548.545,241.707,542.766,246.423z"/>
	<path class="st5" d="M611.919,305.634c-6.741-6.641-17.861-5.947-23.772,1.408c-6.659,8.286-6.767,17.894-5.495,27.713
		c0.567,4.429,2.355,8.473,5.157,12.021c6.745,8.552,19.107,8.509,25.791-0.061c4.594-5.887,5.754-12.743,5.848-20.314
		C619.217,318.908,617.831,311.459,611.919,305.634z M612.605,343.511c-6.174,8.717-17.88,8.682-23.877-0.161
		c-3.309-4.863-4.347-10.401-4.289-16.209c0.154-6.677,1.156-13.109,5.948-18.253c6.202-6.666,16.255-6.056,21.743,1.239
		C618.391,318.441,618.625,335.01,612.605,343.511z"/>
	<path class="st2" d="M398.954,266.945c-4.263-15.563-13.72-25.519-28.675-34.544c-1.412-0.855-2.349-1.178-3.75-1.709
		c-5.456-2.072-11.213-2.729-16.881-3.761c-16.888-1.986-33.836-0.761-50.764-0.869c-4.583-0.032-6.335,2.116-6.357,7.144
		c-0.072,19.466-0.162,38.933,0.046,58.4c0,5.397,0,10.096,0,15.296c0.043,15.929,0.945,31.861,1.006,47.79
		c0.015,4.313,1.038,5.302,5.388,5.313c12.014,0.011,24.024-0.036,36.038,0.011c7.869,0.039,15.627-0.83,23.334-2.335
		c20.936-4.102,34.461-16.367,40.331-36.867C403.792,302.919,403.854,284.831,398.954,266.945z M311.247,244.666
		c-0.007-1.792,0.474-2.402,2.328-2.37c12.474,0.212,25.012-0.693,37.363,1.821c6.569,1.336,14.474,4.841,19.172,8.713
		c5.879,4.845,8.742,11.694,10.502,18.867c3.613,14.722,3.573,29.483-0.169,44.22c-4.12,16.209-14.805,24.828-31.014,27.429
		c-11.935,1.911-23.938,1.293-35.927,1.512c-1.943,0.036-2.263-0.746-2.249-2.452L311.247,244.666z"/>
</g>
</svg>
