<?xml version="1.0" encoding="utf-8"?>
<!-- Generator: Adobe Illustrator 16.0.2, SVG Export Plug-In . SVG Version: 6.00 Build 0)  -->
<!DOCTYPE svg PUBLIC "-//W3C//DTD SVG 1.1//EN" "http://www.w3.org/Graphics/SVG/1.1/DTD/svg11.dtd">
<svg version="1.1" id="Layer_1" xmlns="http://www.w3.org/2000/svg" xmlns:xlink="http://www.w3.org/1999/xlink" x="0px" y="0px"
	 width="960px" height="560px" viewBox="0 0 960 560" style="enable-background:new 0 0 960 560;" xml:space="preserve">
<style type="text/css">
<![CDATA[
	.st0{fill:#EE7C00;}
	.st1{fill:#22216A;}
	.st2{clip-path:url(#SVGID_2_);fill:#22216A;}
	.st3{fill:#CC1316;}
	.st4{fill:#009891;}
]]>
</style>
<g>
	<g>
		<rect x="272.712" y="168.6" class="st1" width="39.436" height="44.119"/>
		<rect x="272.712" y="212.719" class="st4" width="39.436" height="44.116"/>
		<rect x="272.712" y="256.835" class="st3" width="39.436" height="44.123"/>
		<rect x="272.712" y="300.958" class="st0" width="39.436" height="44.119"/>
	</g>
	<g>
		<defs>
			<rect id="SVGID_1_" x="312.147" y="167.267" width="372.589" height="179.451"/>
		</defs>
		<clipPath id="SVGID_2_">
			<use xlink:href="#SVGID_1_"  style="overflow:visible;"/>
		</clipPath>
		<path class="st2" d="M469.959,168.789h-73.928v176.414h73.89c-0.755-0.346-14.158-6.721-17.771-24.194h-27.637v-52.173h26.857
			v-24.2h-26.857v-51.659h27.721c0.102-0.886,2.046-15.676,17.598-24.13C469.862,168.82,469.911,168.805,469.959,168.789
			 M604.143,192.976v-24.188h-81.326c2.088,1.157,14.752,8.821,17.31,24.188h13.608v152.226h28.475V192.976H604.143z"/>
		<path class="st2" d="M364.832,311.433c0,7.06-3.533,9.575-9.585,9.575h-14.625v-52.173h14.625c6.052,0,9.585,3.277,9.585,9.576
			V311.433z M362.047,235.573c0,6.302-3.521,9.062-9.058,9.062h-12.367v-51.659h12.367c5.538,0,9.058,2.526,9.058,9.074V235.573z
			 M393.301,311.938v-33.016c0-10.842-5.538-18.908-16.13-23.187c8.828-4.284,13.361-11.603,13.361-21.681V201.04
			c0-20.67-11.593-32.251-36.791-32.251h-41.593v176.414h43.099C381.717,345.202,393.301,332.599,393.301,311.938 M536.484,311.433
			v-29.239h-27.724v29.239c0,7.06-5.541,10.327-12.601,10.327c-7.053,0-11.603-3.268-11.603-10.327V202.552
			c0-6.305,4.55-10.33,11.603-10.33c7.06,0,12.601,4.025,12.601,10.33v29.243h27.724v-29.243c0-20.673-13.61-35.285-40.324-35.285
			c-26.457,0-40.327,14.612-40.327,35.285v108.881c0,20.664,13.87,35.285,40.327,35.285
			C522.874,346.718,536.484,332.097,536.484,311.433 M684.736,192.976v-24.188h-0.125h-28.439h-0.118l-25.188,82.765v-58.578h0.022
			v-24.188H602.32l0.073,176.414h28.472l25.329-83.165l0.045,83.165h28.478V192.976H684.736z"/>
	</g>
	<g>
		<path class="st1" d="M366.926,366.093l-4.255,17.604h-6.446l-1.535-10.525l-1.535,10.525h-6.414l-4.255-17.604h5.752l1.816,11.088
			l1.599-11.088h5.931l1.781,11.12l1.81-11.12H366.926z"/>
		<path class="st1" d="M391.718,366.093l-4.252,17.604h-6.449l-1.535-10.525l-1.538,10.525h-6.414l-4.255-17.604h5.755l1.816,11.088
			l1.605-11.088h5.924l1.778,11.12l1.813-11.12H391.718z"/>
		<path class="st1" d="M416.507,366.093l-4.25,17.604h-6.449l-1.535-10.525l-1.531,10.525h-6.42l-4.252-17.604h5.752l1.816,11.088
			l1.602-11.088h5.931l1.771,11.12l1.816-11.12H416.507z"/>
		<path class="st1" d="M423.173,378.47v5.058h-5.304v-5.058H423.173z"/>
		<path class="st1" d="M441.196,366.093l-5.749,17.604h-5.755l-5.615-17.604h5.934l2.718,10.982l2.718-10.982H441.196z"/>
		<path class="st1" d="M448,376.97c0,1.916,1.01,2.439,2.964,2.439c1.569,0,3.833-0.345,5.717-1.045l0.662,4.463
			c-1.462,0.451-3.937,1.046-7.387,1.046c-5.022,0-7.884-2.337-7.884-6.73v-4.847c0-4.186,2.823-6.555,7.884-6.555
			c4.735,0,7.214,2.196,7.214,6.414v4.428H448V376.97z M451.907,371.807c0-0.866-0.489-1.778-1.951-1.778
			c-1.467,0-1.956,1.046-1.956,1.957v0.803h3.907V371.807z"/>
		<path class="st1" d="M468.396,378.399c0-2.196-9.026-0.416-9.026-6.967v-0.524c0-2.936,2.404-5.167,7.706-5.167
			c3.414,0,5.403,0.595,6.867,1.049l-0.658,4.463c-1.884-0.696-4.291-1.225-5.861-1.225c-1.643,0-1.956,0.49-1.956,0.982v0.063
			c0,2.302,8.997,0.358,8.997,6.935v0.496c0,3.102-2.753,5.368-7.875,5.368c-3.421,0-5.931-0.595-7.393-1.046l0.835-4.463
			c1.883,0.7,4.636,1.218,6.237,1.218c1.816,0,2.127-0.623,2.127-1.077V378.399z"/>
		<path class="st1" d="M483.531,377.77c0,1.084,0.451,1.64,1.569,1.64c0.355,0,1.014-0.07,1.324-0.141l0.349,4.259
			c-1.355,0.24-1.947,0.346-3.764,0.346c-3.699,0-5.403-1.672-5.403-5.445v-8.36h-1.637v-3.975h1.637v-3.488h5.925v3.488h2.894
			v3.975h-2.894V377.77z"/>
		<path class="st1" d="M494.936,358.803v5.161h-5.931v-5.161H494.936z M494.936,366.093v17.435h-5.931v-17.435H494.936z"/>
		<path class="st1" d="M498.389,372.507h11.85v4.604h-11.85V372.507z"/>
		<path class="st1" d="M513.624,366.093h5.922v11.546c0,0.972,0.601,1.771,1.78,1.771c1.503,0,2.13-0.981,2.13-2.439v-10.877h5.921
			v17.435h-4.949l-0.659-1.851c-1.531,1.953-3.805,2.196-4.744,2.196c-4.013,0-5.4-2.791-5.4-5.263V366.093z"/>
		<path class="st1" d="M544.098,383.527l-5.509-7.574v7.574h-5.928v-25.108h5.928v14.926l5.509-7.252h6.765l-6.521,8.227
			l6.867,9.208H544.098z"/>
		<path class="st1" d="M562.891,371.496c-3.14,0-4.425,0.659-4.425,2.133v9.898h-5.928v-17.435h4.949l0.624,3.175
			c0.911-2.964,3.84-3.526,4.779-3.526V371.496z"/>
		<path class="st1" d="M569.445,378.47v5.058h-5.295v-5.058H569.445z"/>
		<path class="st1" d="M572.342,372.437c0-4.394,2.517-6.695,7.526-6.695c3.108,0,5.097,0.595,6.564,1.049l-0.668,4.463
			c-1.884-0.696-2.961-1.052-4.566-1.052c-1.959,0-2.929,1.021-2.929,2.903v3.412c0,1.883,0.97,2.893,2.929,2.893
			c1.605,0,2.683-0.345,4.566-1.045l0.668,4.463c-1.468,0.451-3.456,1.046-6.564,1.046c-5.01,0-7.526-2.299-7.526-6.692V372.437z"/>
		<path class="st1" d="M603.899,377.321c0,4.18-2.826,6.552-7.885,6.552c-5.052,0-7.878-2.372-7.878-6.552v-5.025
			c0-4.186,2.826-6.555,7.878-6.555c5.059,0,7.885,2.369,7.885,6.555V377.321z M594.064,377.639c0,0.901,0.489,1.943,1.95,1.943
			c1.465,0,1.957-1.042,1.957-1.943v-5.653c0-0.911-0.492-1.957-1.957-1.957c-1.461,0-1.95,1.046-1.95,1.957V377.639z"/>
		<path class="st1" d="M612.231,367.938c1.528-1.947,3.83-2.196,4.771-2.196c2.552,0,4.048,1.154,4.818,2.615
			c1.496-2.366,4.146-2.615,5.02-2.615c4.006,0,5.406,2.788,5.406,5.27v12.517h-5.934v-11.542c0-0.975-0.589-1.784-1.774-1.784
			c-1.5,0-2.123,0.981-2.123,2.446v10.88h-5.932v-11.542c0-0.975-0.594-1.784-1.774-1.784c-1.502,0-2.129,0.981-2.129,2.446v10.88
			h-5.928v-17.435h4.949L612.231,367.938z"/>
	</g>
</g>
</svg>
