<?xml version="1.0" encoding="utf-8"?>
<!-- Generator: Adobe Illustrator 16.0.2, SVG Export Plug-In . SVG Version: 6.00 Build 0)  -->
<!DOCTYPE svg PUBLIC "-//W3C//DTD SVG 1.1//EN" "http://www.w3.org/Graphics/SVG/1.1/DTD/svg11.dtd">
<svg version="1.1" id="Layer_1" xmlns="http://www.w3.org/2000/svg" xmlns:xlink="http://www.w3.org/1999/xlink" x="0px" y="0px"
	 width="960px" height="560px" viewBox="0 0 960 560" style="enable-background:new 0 0 960 560;" xml:space="preserve">
<style type="text/css">
<![CDATA[
	.st0{fill:#EC5738;}
	.st1{fill:url(#SVGID_1_);}
	.st2{fill:url(#SVGID_2_);}
	.st3{fill:url(#SVGID_3_);}
	.st4{fill:#FFFFFF;}
]]>
</style>
<g>
	<g>
		<path class="st0" d="M416.198,348.479c0,11.979-10.425,21.681-23.28,21.681h-9.307c-12.863,0-23.28-9.702-23.28-21.681V244.382
			c0-11.978,10.417-21.685,23.28-21.685h9.307c12.854,0,23.28,9.707,23.28,21.685V348.479z"/>
		<path class="st0" d="M570.866,348.479c0,11.979-10.421,21.681-23.284,21.681h-9.299c-12.862,0-23.283-9.702-23.283-21.681V244.382
			c0-11.978,10.421-21.685,23.283-21.685h9.299c12.863,0,23.284,9.707,23.284,21.685V348.479z"/>
		<linearGradient id="SVGID_1_" gradientUnits="userSpaceOnUse" x1="313.7207" y1="370.1602" x2="313.7207" y2="222.647">
			<stop  offset="0.0043" style="stop-color:#F0643C"/>
			<stop  offset="1" style="stop-color:#F5AF3C"/>
		</linearGradient>
		<path class="st1" d="M396.049,222.646c0,0-77.088,0-110.861,0c-7.422,0-23.812,1.114-32.591,19.043
			c-2.743,5.594-4.224,13.599-5.598,22.735c-6.121,40.63-15.606,105.681-15.606,105.681s79.934,0.055,110.461,0.055
			c11.183,0,32.621-0.979,37.262-32.544C383.76,306.063,396.049,222.646,396.049,222.646z"/>
		<linearGradient id="SVGID_2_" gradientUnits="userSpaceOnUse" x1="468.3892" y1="370.1602" x2="468.3892" y2="222.647">
			<stop  offset="0.0043" style="stop-color:#F0643C"/>
			<stop  offset="1" style="stop-color:#F5AF3C"/>
		</linearGradient>
		<path class="st2" d="M550.721,222.646c0,0-77.1,0-110.873,0c-7.414,0-23.803,1.114-32.591,19.043
			c-2.744,5.594-4.22,13.599-5.598,22.735c-6.108,40.63-15.603,105.681-15.603,105.681s79.934,0.055,110.461,0.055
			c11.184,0,32.621-0.979,37.262-32.544C538.429,306.063,550.721,222.646,550.721,222.646z"/>
		<linearGradient id="SVGID_3_" gradientUnits="userSpaceOnUse" x1="623.1953" y1="370.1602" x2="623.1953" y2="222.647">
			<stop  offset="0.0043" style="stop-color:#F0643C"/>
			<stop  offset="1" style="stop-color:#F5AF3C"/>
		</linearGradient>
		<path class="st3" d="M705.521,222.646c0,0-77.088,0-110.861,0c-7.422,0-23.803,1.114-32.59,19.043
			c-2.744,5.594-4.229,13.599-5.598,22.735c-6.117,40.63-15.603,105.681-15.603,105.681s79.933,0.055,110.461,0.055
			c11.183,0,32.608-0.979,37.261-32.544C693.232,306.063,705.521,222.646,705.521,222.646z"/>
	</g>
	<g>
		<path class="st4" d="M338.2,308.615c-0.447,3.356-1.025,6.381-1.685,9.021c-0.659,2.629-1.544,5.084-2.595,7.295
			c-1.145,2.374-2.595,4.599-4.305,6.606c-1.706,1.99-3.73,3.743-6.027,5.189c-2.288,1.45-4.938,2.577-7.856,3.377
			c-2.939,0.787-6.278,1.191-9.932,1.191c-3.956,0-7.401-0.528-10.234-1.549c-2.824-1.021-5.198-2.476-7.053-4.33
			c-1.854-1.863-3.283-4.092-4.249-6.623c-0.97-2.561-1.565-5.389-1.778-8.388c-0.114-1.629-0.089-3.42,0.077-5.287
			c0.148-1.923,0.391-4.104,0.701-6.466l8.958-65.488h-13.964l-8.835,64.646c-0.349,2.573-0.604,5.121-0.762,7.571
			c-0.145,2.42-0.145,4.729-0.008,6.848c0.318,4.441,1.314,8.64,2.952,12.468c1.655,3.85,4.058,7.235,7.121,10.051
			c3.071,2.808,6.925,5.05,11.446,6.648c4.513,1.596,9.881,2.403,15.968,2.403c5.436,0,10.396-0.604,14.734-1.786
			c4.339-1.187,8.23-2.858,11.565-4.968c3.339-2.11,6.257-4.658,8.678-7.576c2.424-2.922,4.453-6.155,6.027-9.596
			c1.131-2.421,2.059-5.083,2.743-7.887c0.698-2.807,1.276-5.908,1.748-9.226l9.409-69.134l0.06-0.463h-13.969L338.2,308.615z"/>
		<path class="st4" d="M513.371,267.041c-0.238-3.139-1.047-6.096-2.396-8.767c-1.349-2.68-3.173-5.113-5.41-7.235
			c-2.25-2.114-4.909-3.952-7.929-5.453c-3.016-1.501-6.363-2.659-9.962-3.433c-2.246-0.455-5.13-0.519-7.895-0.519l-39.86,0.004
			l-16.593,109.67l-0.068,0.477h31.919c4.772,0,9.025-0.153,12.642-0.451c3.649-0.307,7.095-0.753,10.255-1.353
			c5.875-1.157,11.034-2.808,15.317-4.935c4.3-2.144,7.869-4.688,10.626-7.566c2.747-2.889,4.764-6.139,6.006-9.669
			c1.237-3.514,1.714-7.252,1.42-11.102c-0.229-2.943-0.936-5.641-2.118-8.048s-2.781-4.564-4.726-6.406
			c-1.952-1.846-4.254-3.386-6.844-4.568c-2.271-1.037-4.752-1.824-7.376-2.33c7.001-1.897,12.497-5.066,16.351-9.4
			C511.389,280.669,513.877,273.613,513.371,267.041z M469.448,288.947h-21.319l5.215-34.476h17.062
			c2.411,0,4.624,0.081,6.593,0.242c1.939,0.166,3.773,0.459,5.453,0.889c4.097,0.961,7.359,2.556,9.703,4.76
			c2.322,2.173,3.619,5.006,3.887,8.443c0.269,3.39-0.217,6.38-1.45,8.89c-1.225,2.514-3.054,4.636-5.436,6.295
			c-2.407,1.681-5.313,2.935-8.644,3.743C477.177,288.543,473.446,288.947,469.448,288.947z M456.406,338.947h-15.869l5.627-37.168
			h25.539c4.461,0,8.184,0.4,11.063,1.209c3.808,1.063,6.845,2.781,9.014,5.074c2.089,2.221,2.454,4.989,2.723,8.393
			c0.166,2.178-0.064,4.368-0.681,6.516c-0.115,0.409-0.229,0.825-0.327,1.226c-0.451,1.735-0.847,3.229-2.136,4.722
			c-1.634,1.896-3.854,3.606-6.593,5.096c-2.757,1.506-6.262,2.705-10.426,3.556c-2.275,0.485-4.845,0.847-7.635,1.06
			C463.889,338.846,460.426,338.947,456.406,338.947z"/>
		<path class="st4" d="M648.23,300.916c4.054-2.411,5.661-4.529,8.154-8.052c2.688-3.815,4.419-7.205,5.439-10.659
			c1.119-3.794,1.213-7.737,1.213-12.127c0-24.301-26.036-27.934-41.554-27.934h-30.021l-15.733,109.641h14.648l6.457-42.706h24.271
			l21.289,42.484l0.11,0.222h16.308l-19.689-46.475c0.855-0.366,1.557-0.651,2.174-0.919
			C643.789,303.366,644.818,302.945,648.23,300.916z M644.746,283.26c-1.369,1.965-3.301,3.803-5.755,5.457
			c-2.45,1.65-5.683,2.999-9.617,4.012c-2.284,0.574-4.93,1.021-7.856,1.314c-2.926,0.293-6.448,0.446-10.48,0.446h-12.331
			l5.529-38.657h18.971c5.028,0,9.018,0.4,11.851,1.191c4.122,1.217,7.266,3.046,9.328,5.466c2.076,2.425,3.237,5.232,3.458,8.35
			c0.162,2.05,0.021,4.164-0.403,6.295C647.018,279.244,646.12,281.308,644.746,283.26z"/>
	</g>
</g>
</svg>
