<?xml version="1.0" encoding="utf-8"?>
<!-- Generator: Adobe Illustrator 16.0.2, SVG Export Plug-In . SVG Version: 6.00 Build 0)  -->
<!DOCTYPE svg PUBLIC "-//W3C//DTD SVG 1.1//EN" "http://www.w3.org/Graphics/SVG/1.1/DTD/svg11.dtd">
<svg version="1.1" id="Layer_1" xmlns="http://www.w3.org/2000/svg" xmlns:xlink="http://www.w3.org/1999/xlink" x="0px" y="0px"
	 width="960px" height="560px" viewBox="0 0 960 560" style="enable-background:new 0 0 960 560;" xml:space="preserve">
<style type="text/css">
<![CDATA[
	.st0{fill:#1C2473;}
	.st1{clip-path:url(#SVGID_2_);fill:#1C2473;}
	.st2{fill:#F58220;}
	.st3{fill:#00A99D;}
	.st4{fill:#D2232A;}
]]>
</style>
<g>
	<g>
		<polygon class="st0" points="242.886,246.664 286.986,246.599 286.917,197.257 242.808,197.317 		"/>
		<polygon class="st3" points="242.947,296.005 287.056,295.945 286.986,246.599 242.886,246.664 		"/>
		<polygon class="st4" points="243.021,345.362 287.132,345.299 287.056,295.945 242.947,296.005 		"/>
		
			<rect x="243.058" y="345.331" transform="matrix(-1 0.0014 -0.0014 -1 530.7554 739.6239)" class="st2" width="44.107" height="49.345"/>
	</g>
	<g>
		<path class="st0" d="M325.867,150.614l3.784-0.003l0.04,27.899l-3.783,0.007L325.867,150.614z M327.724,153.641l-0.009-3.025
			l15.084-0.028l0.001,3.034L327.724,153.641z M327.742,165.877l-0.008-3.029l12.46-0.008v3.015L327.742,165.877z M327.758,178.515
			v-3.028l15.074-0.026l0.007,3.036L327.758,178.515z"/>
		<path class="st0" d="M348.403,158.592l1.535,3.867c1.595,3.866,2.545,4.746,5.504,4.741l3.188-0.009l0.007,1.872l-4.315,0.007
			c-4.059,0.003-5.784-1.111-7.894-6.331l-1.594-4.144L348.403,158.592z M348.437,178.481l-3.569,0.009l1.573-4.356
			c2.063-5.536,3.823-6.372,7.878-6.377l4.313-0.005v1.878l-3.187-0.001c-2.96,0.003-4.025,0.837-5.49,4.788L348.437,178.481z
			 M361.325,158.537l0.028,19.928l-3.587,0.009l-0.026-19.928L361.325,158.537z M370.647,158.558l3.587-0.009l-1.588,4.156
			c-2.106,5.22-3.81,6.342-7.882,6.351h-4.251l-0.001-1.866l3.143-0.005c2.937-0.001,3.893-0.883,5.527-4.754L370.647,158.558z
			 M370.672,178.451l-1.468-4.064c-1.526-3.94-2.611-4.78-5.544-4.773l-3.142,0.005l-0.01-1.875l4.258-0.007
			c4.067-0.001,5.859,0.827,7.901,6.36l1.596,4.352L370.672,178.451z"/>
		<path class="st0" d="M379.728,169.299l0.003,2.399c0.003,3.588,2.474,4.383,4.909,4.382c2.039-0.009,4.593-0.484,6.339-1.212
			l0.527,2.759c-1.352,0.43-4.074,1.195-7.406,1.204c-3.874,0.005-7.953-1.624-7.955-7.005l-0.011-6.777
			c-0.007-4.977,3.632-6.933,7.809-6.942c3.98-0.002,7.409,1.822,7.412,6.841l0.009,4.335L379.728,169.299z M388.177,164.759
			c-0.003-2.797-1.868-4.031-4.23-4.023c-2.343,0.001-4.231,1.32-4.226,4.112v2.072l8.456-0.014V164.759z"/>
		<path class="st0" d="M416.022,175.359l0.007,7.018l-2.633,0.005l-0.001-3.989l-17.059,0.021l0.007,3.994l-2.668,0.001
			l-0.013-7.019l1.155-0.003c1.914-0.003,3.147-0.64,3.141-4.029l-0.016-12.875l15.637-0.021l0.014,16.896H416.022z
			 M409.999,175.368l-0.018-13.866l-8.447,0.007l0.016,9.604c0,2.232-0.341,3.516-1.108,4.266L409.999,175.368z"/>
		<path class="st0" d="M423.185,158.447l0.029,19.927l-3.599,0.011l-0.021-19.927L423.185,158.447z M420.964,167.186l13.113-0.022
			l0.007,2.465l-13.117,0.016L420.964,167.186z M435.186,158.431l0.032,19.93l-3.59,0.005l-0.028-19.928L435.186,158.431z"/>
		<path class="st0" d="M443.057,169.216l0.003,2.402c0.003,3.582,2.481,4.366,4.917,4.372c2.018-0.002,4.587-0.482,6.332-1.207
			l0.522,2.755c-1.354,0.424-4.062,1.195-7.405,1.198c-3.879,0.005-7.941-1.617-7.943-7.004l-0.01-6.772
			c-0.003-4.984,3.615-6.941,7.793-6.945c3.996-0.005,7.422,1.818,7.435,6.844l0.002,4.34L443.057,169.216z M451.504,164.665
			c-0.001-2.79-1.873-4.025-4.234-4.023c-2.339,0.005-4.223,1.32-4.22,4.118l0.001,2.065l8.456-0.009L451.504,164.665z"/>
		<path class="st0" d="M458.996,158.394h3.58l0.035,19.932l-3.582,0.002L458.996,158.394z M460.69,168.912l-0.003-1.914l4.7-0.005
			c2.547-0.002,5.026-0.282,5.018-2.871l0.001-0.41c-0.005-2.335-1.835-2.855-4.19-2.853l-5.536,0.012l-0.005-2.476l5.534-0.009
			c4.433-0.007,7.776,0.781,7.787,5.052l-0.002,0.4c0.007,4.378-3.972,5.062-8.599,5.067L460.69,168.912z M460.704,178.324
			l-0.003-2.481l6.49-0.01c2.288-0.005,4.22-0.553,4.22-3.069l0.002-0.4c-0.009-2.47-2.199-3.062-4.829-3.062l-5.894,0.007
			l-0.003-1.912l6.064-0.005c4.26-0.007,8.252,1.063,8.258,5.055l0.001,0.393c0.013,4.582-3.59,5.467-7.974,5.473L460.704,178.324z"
			/>
		<path class="st0" d="M482.243,158.362l0.028,19.932l-3.588,0.003l-0.027-19.934L482.243,158.362z M480.037,167.097l13.105-0.02
			l0.007,2.463l-13.109,0.021L480.037,167.097z M494.24,158.348l0.03,19.927l-3.591,0.004l-0.03-19.926L494.24,158.348z"/>
		<path class="st0" d="M498.724,159.691c1.548-0.753,4.138-1.759,7.288-1.759c3.71-0.009,7.496,1.219,7.506,6.438l0.022,13.878
			l-2.993,0.001l-0.4-3.265c-1.565,3.15-4.457,3.668-6.212,3.67c-4.386,0.009-5.987-2.985-5.993-5.334v-0.511
			c-0.008-3.387,2.347-6.386,11.99-6.479l-0.001-1.75c-0.011-3.385-2.359-3.835-4.273-3.832c-2.238,0.003-4.588,0.817-6.188,1.494
			L498.724,159.691z M509.928,168.334c-6.94,0.085-8.404,1.918-8.401,3.994l0.002,0.319c-0.002,1.711,1.131,3.263,3.838,3.256
			c2.494-0.003,4.575-1.516,4.568-5.229L509.928,168.334z"/>
		<path class="st0" d="M520.086,178.237l-3.582,0.003l1.577-4.351c1.901-5.173,4.216-5.733,8.278-5.742l3.905-0.004l0.004,1.873
			l-3.184,0.001c-2.949,0.005-4.148,0.572-5.499,4.149L520.086,178.237z M531.343,169.612h-5.301
			c-4.224,0.054-8.04-1.061-8.047-5.441v-0.395c-0.007-4.279,3.17-5.467,7.196-5.474l6.14-0.011l0.001,2.47l-5.575,0.007
			c-2.354,0.012-4.186,0.927-4.181,3.281v0.393c-0.005,2.594,2.474,3.306,5.057,3.298l4.709-0.016L531.343,169.612z
			 M532.973,158.295L533,178.218l-3.598,0.011l-0.024-19.929L532.973,158.295z"/>
		<path class="st0" d="M549.401,161.293l0.029,16.907l-3.59-0.001l-0.021-19.925l12.595-0.018l0.007,3.027L549.401,161.293z"/>
		<path class="st0" d="M560.609,159.599c1.551-0.748,4.144-1.748,7.303-1.757c3.699-0.001,7.479,1.223,7.487,6.443l0.024,13.87
			l-2.988,0.007l-0.4-3.269c-1.554,3.145-4.45,3.673-6.229,3.672c-4.366,0.001-5.964-2.985-5.971-5.33v-0.519
			c-0.004-3.381,2.342-6.382,11.996-6.475l-0.006-1.748c-0.004-3.391-2.365-3.836-4.267-3.836c-2.239,0.005-4.6,0.819-6.19,1.495
			L560.609,159.599z M571.83,168.245c-6.935,0.077-8.413,1.917-8.416,3.994l0.004,0.31c0.003,1.719,1.119,3.271,3.838,3.267
			c2.505,0,4.582-1.517,4.579-5.23L571.83,168.245z"/>
		<path class="st0" d="M593.113,163.532c0,2.441-1.545,3.788-3.627,4.397c2.349,0.599,4.233,1.912,4.239,4.742l-0.002,0.4
			c0.007,4.453-4.016,5.458-7.889,5.466c-3.155,0.005-5.361-0.746-6.734-1.187l0.473-2.752c1.785,0.717,4.028,1.188,6.064,1.193
			c2.388-0.007,4.506-0.684,4.505-3.237v-0.271c0.001-2.319-2.017-3.157-4.682-3.157l-4.012,0.009l-0.006-2.303l3.943-0.016
			c2.063-0.003,4.145-0.68,4.145-2.908l-0.006-0.279c-0.002-2.428-2.007-3.071-4.39-3.066c-2.071,0-3.831,0.481-5.583,1.202
			l-0.475-2.749c1.312-0.44,3.336-1.196,6.534-1.202c3.858-0.005,7.494,0.988,7.499,5.33L593.113,163.532z"/>
		<path class="st0" d="M600.383,168.986l0.002,2.401c0.002,3.582,2.48,4.378,4.913,4.37c2.033,0,4.578-0.482,6.333-1.207
			l0.521,2.759c-1.351,0.433-4.065,1.194-7.411,1.205c-3.869,0.002-7.934-1.626-7.942-7.006l-0.011-6.783
			c-0.007-4.972,3.618-6.927,7.812-6.933c3.979-0.01,7.399,1.814,7.41,6.842l0.004,4.338L600.383,168.986z M608.832,164.438
			c-0.01-2.795-1.884-4.029-4.23-4.023c-2.363,0-4.234,1.315-4.232,4.116l0.007,2.068l8.453-0.01L608.832,164.438z"/>
		<path class="st0" d="M614.209,161.207l0.002-3.03l15.028-0.024l0.005,3.03L614.209,161.207z M620.024,158.436h3.583l0.035,19.653
			l-3.583,0.004L620.024,158.436z"/>
		<path class="st0" d="M631.398,159.498c1.548-0.751,4.146-1.753,7.29-1.755c3.702-0.01,7.487,1.221,7.498,6.431l0.015,13.885
			l-2.985,0.003l-0.393-3.271c-1.54,3.151-4.464,3.671-6.213,3.671c-4.392,0.01-5.989-2.984-5.985-5.331l-0.007-0.518
			c-0.007-3.381,2.336-6.381,12-6.475l-0.008-1.748c0-3.387-2.362-3.836-4.276-3.834c-2.232,0.001-4.588,0.822-6.175,1.494
			L631.398,159.498z M642.617,168.135c-6.942,0.089-8.417,1.929-8.412,4.003l0.002,0.316c-0.002,1.715,1.122,3.258,3.824,3.262
			c2.529-0.005,4.6-1.522,4.593-5.23L642.617,168.135z"/>
	</g>
	<g>
		<defs>
			
				<rect id="SVGID_1_" x="287.06" y="195.469" transform="matrix(-1 0.0014 -0.0014 -1 991.2937 590.9442)" width="416.747" height="200.721"/>
		</defs>
		<clipPath id="SVGID_2_">
			<use xlink:href="#SVGID_1_"  style="overflow:visible;"/>
		</clipPath>
		<path class="st1" d="M463.423,197.202l-82.679,0.115l0.28,197.338l82.647-0.117c-0.853-0.392-15.845-7.499-19.917-27.043
			l-30.914,0.045l-0.081-58.354l30.043-0.047l-0.045-27.063l-30.041,0.045l-0.084-57.786l31.013-0.047
			c0.103-0.992,2.26-17.53,19.635-27.014C463.322,197.244,463.377,197.226,463.423,197.202 M613.557,224.041l-0.043-27.061
			l-90.957,0.132c2.336,1.298,16.508,9.848,19.393,27.03l15.224-0.021l0.244,170.282l31.85-0.045l-0.241-170.279L613.557,224.041z"
			/>
		<path class="st1" d="M346.073,356.923c0.01,7.894-3.935,10.721-10.714,10.733l-16.349,0.019l-0.088-58.357l16.355-0.017
			c6.777-0.017,10.729,3.648,10.74,10.696L346.073,356.923z M342.845,272.083c0.003,7.039-3.933,10.14-10.124,10.153l-13.843,0.019
			l-0.075-57.789l13.838-0.019c6.191-0.012,10.133,2.811,10.147,10.136L342.845,272.083z M377.915,357.447l-0.052-36.93
			c-0.019-12.12-6.226-21.142-18.08-25.908c9.864-4.808,14.928-12.997,14.912-24.275l-0.058-36.933
			c-0.027-23.115-13.022-36.057-41.198-36.016l-46.52,0.067l0.281,197.338l48.194-0.065
			C365.011,394.684,377.952,380.559,377.915,357.447 M538.07,356.653l-0.053-32.704l-31.011,0.05l0.057,32.7
			c0.006,7.894-6.186,11.551-14.083,11.562c-7.891,0.016-12.978-3.635-12.986-11.526l-0.18-121.787
			c-0.003-7.051,5.071-11.566,12.958-11.575c7.894-0.007,14.1,4.49,14.11,11.539l0.049,32.699l31.006-0.047l-0.044-32.695
			c-0.034-23.126-15.275-39.444-45.161-39.396c-29.592,0.039-45.083,16.4-45.046,39.526l0.176,121.784
			c0.031,23.116,15.573,39.457,45.158,39.411C522.907,396.152,538.099,379.771,538.07,356.653 M703.701,223.908l-0.036-27.058h-0.13
			l-31.82,0.048l-0.132-0.001l-28.042,92.626l-0.095-65.521l0.026-0.003l-0.035-27.059l-31.966,0.049l0.378,197.334l31.847-0.043
			l28.197-93.066l0.192,93.019l31.837-0.04l-0.243-170.28L703.701,223.908z"/>
	</g>
</g>
</svg>
