<?xml version="1.0" encoding="utf-8"?>
<!-- Generator: Adobe Illustrator 17.1.0, SVG Export Plug-In . SVG Version: 6.00 Build 0)  -->
<!DOCTYPE svg PUBLIC "-//W3C//DTD SVG 1.1//EN" "http://www.w3.org/Graphics/SVG/1.1/DTD/svg11.dtd">
<svg version="1.1" id="Layer_1" xmlns="http://www.w3.org/2000/svg" xmlns:xlink="http://www.w3.org/1999/xlink" x="0px" y="0px"
	 viewBox="0 0 40 40" enable-background="new 0 0 40 40" xml:space="preserve">
<g>
	<g>
		<polygon fill="#333366" points="-276.2,-129.3 -260.7,-129.3 -256,-144.7 -271.5,-144.7 		"/>
		<polygon fill="#009191" points="-280.9,-113.9 -265.3,-113.9 -260.7,-129.3 -276.2,-129.3 		"/>
		<polygon fill="#C40000" points="-285.5,-98.5 -270,-98.5 -265.3,-113.9 -280.9,-113.9 		"/>
		<polygon fill="#FF6600" points="-290.2,-83.1 -274.7,-83.1 -270,-98.5 -285.5,-98.5 		"/>
		<polygon fill="#333366" points="-293.3,-144.7 -308.8,-144.7 -294.2,-96.4 -286.4,-122 		"/>
	</g>
	<g>
		<path fill="#333366" d="M-238.5-98.5v7.9c0,2.7,1.2,4.3,3.9,4.3c2.6,0,3.8-1.6,3.8-4.3v-7.9h4.2v7.9c0,5.1-3.1,7.9-8,7.9
			c-4.9,0-8-2.8-8-7.9v-7.9H-238.5z"/>
		<path fill="#333366" d="M-220-98.5v5.4h3.6l3.7-5.4h4.8l-5,7.1l5.3,8.3h-4.9l-3.8-6.2h-3.8v6.2h-4.1v-15.4H-220z"/>
		<path fill="#333366" d="M-196.4-98.5c3.7,0,6.5,2.5,6.5,6.1c0,2.3-1.1,4-2.8,5.1l2.4,4.2h-4.5l-1.8-3.3h-4.8v3.3h-4.1v-15.4
			H-196.4z M-201.5-90.1h4.9c1.5,0,2.5-0.8,2.5-2.3c0-1.5-1-2.4-2.5-2.4h-4.9V-90.1z"/>
		<path fill="#333366" d="M-175.7-98.5l6.6,15.4h-4.4l-1-2.3h-8.6l-1,2.3h-4.4l6.7-15.4H-175.7z M-181.5-88.9h5.5l-2.4-5.9h-0.6
			L-181.5-88.9z"/>
		<path fill="#333366" d="M-162.9-98.5v15.4h-4.1v-15.4H-162.9z"/>
		<path fill="#333366" d="M-156.5-98.5l8.3,9.3v-9.3h4.1v15.4h-3.8l-8.3-9.3v9.3h-4.1v-15.4H-156.5z"/>
		<path fill="#333366" d="M-127.2-98.5v3.7h-10.2v2h9.1v3.7h-9.1v2.2h10.5v3.8h-14.6v-15.4H-127.2z"/>
	</g>
	<g>
		<path fill="#333366" d="M-239.7-121.4l4.8,11.9h0.4l4.8-11.9h4.6l-6.8,15.6h-5.5l-6.9-15.6H-239.7z"/>
		<path fill="#333366" d="M-207.7-121.4v3.7H-218v2.1h9.2v3.7h-9.2v2.2h10.6v3.8h-14.8v-15.6H-207.7z"/>
		<path fill="#333366" d="M-190.6-116.2c-1.8-1.3-3.7-1.8-6.2-1.8c-2.7,0-3.3,0.6-3.3,1.3c0,0.6,0.7,0.8,1.6,0.9l4.6,0.5
			c3.5,0.4,5.6,1.8,5.6,4.8c0,3.6-3.6,5.2-8.3,5.2c-3.3,0-5.7-0.7-8.3-2.6l2-3.2c2.1,1.5,4.3,2.3,6.7,2.3c2.2,0,3.9-0.5,3.9-1.5
			c0-0.5-0.1-0.8-1.1-0.9l-5.4-0.6c-3.3-0.4-5.3-1.7-5.3-4.7c0-3.4,3.3-5,7.4-5c3,0,5.7,0.6,8.2,2.5L-190.6-116.2z"/>
		<path fill="#333366" d="M-169.9-121.4v3.7h-6.1v11.9h-4.2v-11.9h-6.1v-3.7H-169.9z"/>
		<path fill="#333366" d="M-162.9-121.4v15.6h-4.2v-15.6H-162.9z"/>
	</g>
	<g>
		<path fill="#333366" d="M-241.4-136.8l2.8,6.2h0.1l2.7-6.2h1.5v7.4h-0.9v-6.2h-0.2l-2.7,6.2h-0.9l-2.8-6.2h-0.2v6.2h-0.9v-7.4
			H-241.4z"/>
		<path fill="#333366" d="M-224.8-136.8v0.9h-4.8v2.2h4.3v0.9h-4.3v2.3h4.9v1h-5.8v-7.4H-224.8z"/>
		<path fill="#333366" d="M-217.5-136.8c1.9,0,3.4,1.4,3.4,3.7c0,2.3-1.6,3.7-3.4,3.7h-3.2v-7.4H-217.5z M-219.8-130.4h2.2
			c1.6,0,2.6-1.1,2.6-2.7c0-1.6-1-2.7-2.6-2.7h-2.2V-130.4z"/>
		<path fill="#333366" d="M-209.4-136.8v7.4h-0.9v-7.4H-209.4z"/>
		<path fill="#333366" d="M-200.7-136.8l2.7,7.4h-1l-0.5-1.2h-4.8l-0.5,1.2h-1l2.8-7.4H-200.7z M-203.9-131.6h4.1l-1.5-4.3h-1
			L-203.9-131.6z"/>
		<path fill="#333366" d="M-188.9-136.8v3.1h4.6v-3.1h0.9v7.4h-0.9v-3.3h-4.6v3.3h-0.9v-7.4H-188.9z"/>
		<path fill="#333366" d="M-176-129.3c-2,0-3.6-1.5-3.6-3.9c0-2.3,1.6-3.9,3.6-3.9c2,0,3.6,1.5,3.6,3.9
			C-172.5-130.8-174-129.3-176-129.3z M-176-130.2c1.5,0,2.7-1.1,2.7-2.9c0-1.8-1.2-2.9-2.7-2.9c-1.5,0-2.7,1.1-2.7,2.9
			C-178.7-131.3-177.5-130.2-176-130.2z"/>
		<path fill="#333366" d="M-167.8-136.8v6.4h4.8v1h-5.7v-7.4H-167.8z"/>
		<path fill="#333366" d="M-156.1-136.8c1.9,0,3.4,1.4,3.4,3.7c0,2.3-1.6,3.7-3.4,3.7h-3.2v-7.4H-156.1z M-158.4-130.4h2.2
			c1.6,0,2.6-1.1,2.6-2.7c0-1.6-1-2.7-2.6-2.7h-2.2V-130.4z"/>
		<path fill="#333366" d="M-148-136.8v7.4h-0.9v-7.4H-148z"/>
		<path fill="#333366" d="M-143-136.8l4.7,6v-6h0.9v7.4h-1l-4.7-6v6h-0.9v-7.4H-143z"/>
		<path fill="#333366" d="M-126.8-133.5v4.1h-0.6l-0.2-0.8c-0.6,0.6-1.4,1-2.5,1c-2.1,0-3.6-1.5-3.6-3.9c0-2.4,1.5-3.8,3.6-3.8
			c1.4,0,2.4,0.6,3.1,1.7l-0.7,0.5c-0.5-0.8-1.3-1.2-2.4-1.2c-1.6,0-2.6,1.1-2.6,2.9c0,1.7,1.1,2.9,2.6,2.9c1.1,0,1.8-0.4,2.4-1.1
			v-1.3l-1.8-0.1v-0.9H-126.8z"/>
	</g>
</g>
<g>
	<g>
		<path fill="#FFFFFF" d="M38.4,40c-0.4,0-0.8-0.2-1.1-0.5L0.5,2.8c-0.6-0.6-0.6-1.7,0-2.3c0.6-0.6,1.6-0.6,2.3,0l36.8,36.8
			c0.6,0.6,0.6,1.7,0,2.3C39.2,39.8,38.8,40,38.4,40z"/>
	</g>
	<g>
		<path fill="#FFFFFF" d="M1.6,40c-0.4,0-0.8-0.2-1.1-0.5c-0.6-0.6-0.6-1.7,0-2.3L37.2,0.5c0.6-0.6,1.7-0.6,2.3,0
			c0.6,0.6,0.6,1.7,0,2.3L2.8,39.5C2.4,39.8,2,40,1.6,40z"/>
	</g>
</g>
</svg>
